<svg id="레이어_1" data-name="레이어 1" xmlns="http://www.w3.org/2000/svg" xmlns:xlink="http://www.w3.org/1999/xlink" viewBox="0 0 330 1040"><defs><style>.cls-1{fill:none;stroke-width:10px;stroke:url(#무제_그라디언트);}.cls-2,.cls-3,.cls-4,.cls-5,.cls-6,.cls-7,.cls-8{fill:#fff;}.cls-2{stroke:#c1c0ff;}.cls-2,.cls-3,.cls-4,.cls-5,.cls-6,.cls-7{stroke-width:3px;}.cls-3{stroke:#a2a1ff;}.cls-4{stroke:#8886ff;}.cls-5{stroke:#7777fc;}.cls-6{stroke:#7171ff;}.cls-7{stroke:#5a5aff;}.cls-8{stroke:#6563ff;stroke-width:5px;}.cls-11,.cls-9{isolation:isolate;}.cls-10,.cls-11{fill:#c1c0ff;}.cls-11{font-size:25.19px;font-family:VITRO-CORE-OTF, VITRO CORE OTF;}</style><linearGradient id="무제_그라디언트" x1="165" y1="1033" x2="165" y2="147" gradientTransform="matrix(1, 0, 0, -1, 0, 1042)" gradientUnits="userSpaceOnUse"><stop offset="0" stop-color="#e4e4ff" stop-opacity="0.17"/><stop offset="1" stop-color="#e4e4ff"/></linearGradient></defs><path class="cls-1" d="M165,9V895"/><circle class="cls-2" cx="164.5" cy="8.5" r="7"/><circle class="cls-3" cx="164.5" cy="159.5" r="7"/><circle class="cls-4" cx="164.5" cy="306.5" r="7"/><circle class="cls-5" cx="164.5" cy="430.5" r="7"/><circle class="cls-6" cx="164.5" cy="591.5" r="7"/><circle class="cls-7" cx="164.5" cy="744.5" r="7"/><circle class="cls-8" cx="164.5" cy="894.5" r="6"/><g class="cls-9"><path class="cls-10" d="M116.67,33.63l-4.91-.76c.52-4.45,2.62-6.37,7.3-6.37s7.06,2,7.06,5.74c0,3.18-1.49,5.45-3.71,7.81l-3.55,3.81H126v4.66H112.16V44.11l5.21-5.79c2.09-2.35,3.18-3.68,3.18-5.32,0-1.31-.56-1.81-1.77-1.81S117,32.19,116.67,33.63Z"/><path class="cls-10" d="M128.38,33c0-4.76,3.1-6.5,7.25-6.5s7.26,1.74,7.26,6.5v9.4c0,4.76-3.1,6.5-7.26,6.5s-7.25-1.74-7.25-6.5Zm5.54,8.46c0,1.92.78,2.78,1.71,2.78s1.72-.86,1.72-2.78V33.93c0-1.91-.78-2.77-1.72-2.77s-1.71.86-1.71,2.77Z"/><path class="cls-10" d="M150.07,33.63l-4.92-.76c.53-4.45,2.62-6.37,7.31-6.37s7,2,7,5.74c0,3.18-1.48,5.45-3.7,7.81l-3.55,3.81h7.13v4.66H145.56V44.11l5.21-5.79C152.86,36,154,34.64,154,33c0-1.31-.56-1.81-1.77-1.81S150.34,32.19,150.07,33.63Z"/><path class="cls-10" d="M161.78,33c0-4.76,3.1-6.5,7.25-6.5s7.26,1.74,7.26,6.5v9.4c0,4.76-3.1,6.5-7.26,6.5s-7.25-1.74-7.25-6.5Zm5.54,8.46c0,1.92.78,2.78,1.71,2.78s1.72-.86,1.72-2.78V33.93c0-1.91-.79-2.77-1.72-2.77s-1.71.86-1.71,2.77Z"/><path class="cls-10" d="M189.76,33.63l-4.91-.76c.53-4.45,2.62-6.37,7.3-6.37s7.06,2,7.06,5.74c0,3.18-1.49,5.45-3.71,7.81L192,43.86h7.13v4.66H185.25V44.11l5.21-5.79c2.1-2.35,3.18-3.68,3.18-5.32,0-1.31-.56-1.81-1.76-1.81S190,32.19,189.76,33.63Z"/><path class="cls-10" d="M217.92,50.74h-5.79l-.84-2.1a6,6,0,0,1-1.81.26c-4.36,0-7.76-1.74-7.76-5.5V32c0-3.75,3.4-5.49,8-5.49s8,1.74,8,5.49V43.4a4.69,4.69,0,0,1-1.61,3.68Zm-10.66-8.52c0,1.33,1.14,2,2.47,2s2.47-.69,2.47-2v-9c0-1.34-1.13-2-2.47-2s-2.47.68-2.47,2Z"/></g><g class="cls-9"><path d="M27.43,77.92h7.24V79H27.23a.6.6,0,0,1-.44-.16l-.4-.36a.72.72,0,0,1-.22-.5V65.18l-.72-.8c-.12-.14-.08-.32.14-.32h8.88v1.06h-7v5.46h6.62v1.06H27.43Z"/><path d="M46.59,79H45.21l-3.36-6.56H37.73V79H36.47V65.18l-.72-.8c-.12-.14-.08-.32.14-.32h5.48c3,0,4.5,1,4.5,3.38V69a3,3,0,0,1-2.7,3.24Zm-8.86-7.62h3.64c2.4,0,3.24-.78,3.24-2.54v-1.2c0-1.76-.84-2.52-3.24-2.52H37.73Z"/><path d="M57.39,75.66l1,.56a5.51,5.51,0,0,1-5.18,3c-3.38,0-5.18-1.52-5.18-4.5V68.36c0-3.16,1.8-4.5,5.18-4.5a5.3,5.3,0,0,1,5,2.76l-1,.56a4.34,4.34,0,0,0-3.94-2.26c-2.66,0-3.92,1.18-3.92,3.72V74.4c0,2.54,1.26,3.72,3.92,3.72A4.55,4.55,0,0,0,57.39,75.66Z"/><path d="M64.35,65c-1.64,0-2.5.84-3.42,2.14l-1.1-.48A4.83,4.83,0,0,1,64.35,64c2,0,4.22.88,4.22,3.3,0,2.22-1,3.54-3.52,6.5l-3.56,4.16h7.12V79h-8.7V77.92l4.2-4.9c2-2.32,3.2-3.74,3.2-5.76C67.31,65.7,66,65,64.35,65Z"/><path d="M70.81,74V69.06c0-3.36,1.7-5.1,4.58-5.1S80,65.7,80,69.06V74c0,3.18-1.7,5.1-4.58,5.1S70.81,77.16,70.81,74Zm7.9-.08V69.14c0-2.6-1.16-4.12-3.32-4.12s-3.32,1.52-3.32,4.12V73.9c0,2.6,1.16,4.12,3.32,4.12S78.71,76.5,78.71,73.9Z"/><path d="M97,67.44v1.8c0,2.34-1.48,3.4-4.5,3.4H88.83V79H87.57V65.18l-.72-.8c-.12-.14-.08-.32.14-.32h5.48C95.49,64.06,97,65.1,97,67.44Zm-1.26.2c0-1.76-.84-2.52-3.24-2.52H88.83v6.46h3.64c2.4,0,3.24-.78,3.24-2.54Z"/><path d="M99.77,79V63.26H101V79Z"/><path d="M108.59,68.32c3.06,0,4.34.94,4.34,3.38V79h-1.26v-1.1a9.88,9.88,0,0,1-4.1,1.2c-1.9,0-3.34-1-3.34-2.9v-1c0-1.9,1.36-2.9,3.74-2.9h3.7v-.6c0-1.68-.82-2.32-3.08-2.32h-3.52V68.32Zm3.08,8.5V73.36H108c-1.64,0-2.48.64-2.48,1.92v.82A1.86,1.86,0,0,0,107.57,78,9.88,9.88,0,0,0,111.67,76.82Z"/><path d="M121.23,77.92V79h-1.46c-2.46,0-3.54-.68-3.54-3.38V69.38h-2.3V68.32h2.3V64.26l1.26-.2v4.26H121l.2,1.06h-3.66V75.6c0,1.94.76,2.32,2.28,2.32Z"/><path d="M128.05,64.32c-1.52,0-2.28.38-2.28,2.32v1.68h4v1.06h-4V79h-1.26v-9.6H122l-.2-1.06h2.68V66.64c0-2.7,1.08-3.38,3.54-3.38h1.74v1.06Z"/><path d="M130.39,75.28V72c0-2.42,1.74-3.9,4.74-3.9s4.74,1.48,4.74,3.9v3.26c0,2.42-1.74,3.9-4.74,3.9S130.39,77.7,130.39,75.28Zm8.22-.08V72.1c0-1.82-1.16-2.92-3.48-2.92s-3.48,1.1-3.48,2.92v3.1c0,1.82,1.16,2.92,3.48,2.92S138.61,77,138.61,75.2Z"/><path d="M149.07,69.38h-2.62c-2,0-2.72.84-2.72,2.72V79h-1.26V72c0-2.56,1.32-3.66,3.9-3.66h2.5Z"/><path d="M163.69,70.9V79h-1.26V71.1c0-1.26-.38-1.82-1.22-1.82a13,13,0,0,0-3.48.8,3.46,3.46,0,0,1,.08.82V79h-1.26V71.1c0-1.26-.38-1.82-1.22-1.82a11.69,11.69,0,0,0-3.4.9V79h-1.26V69.44l-.72-.8c-.12-.14-.08-.32.14-.32h1.84v.76a11.85,11.85,0,0,1,3.5-.86,2.22,2.22,0,0,1,1.88.88,15,15,0,0,1,4-.88C162.71,68.22,163.69,69.16,163.69,70.9Z"/><path d="M181.61,79h-1.38l-3.36-6.56h-4.12V79h-1.26V65.18l-.72-.8c-.12-.14-.08-.32.14-.32h5.48c3,0,4.5,1,4.5,3.38V69a3,3,0,0,1-2.7,3.24Zm-8.86-7.62h3.64c2.4,0,3.24-.78,3.24-2.54v-1.2c0-1.76-.84-2.52-3.24-2.52h-3.64Z"/><path d="M182.69,75.28V72c0-2.42,1.74-3.9,4.74-3.9s4.74,1.48,4.74,3.9v3.26c0,2.42-1.74,3.9-4.74,3.9S182.69,77.7,182.69,75.28Zm8.22-.08V72.1c0-1.82-1.16-2.92-3.48-2.92S184,70.28,184,72.1v3.1c0,1.82,1.16,2.92,3.48,2.92S190.91,77,190.91,75.2Z"/><path d="M195.37,79V63.26h1.26V79Z"/><path d="M200.63,79V63.26h1.26V79Z"/><path d="M205.09,70.68h6.4v1.06h-6.4Z"/><path d="M213.89,75.28V72c0-2.42,1.74-3.9,4.74-3.9s4.74,1.48,4.74,3.9v3.26c0,2.42-1.74,3.9-4.74,3.9S213.89,77.7,213.89,75.28Zm8.22-.08V72.1c0-1.82-1.16-2.92-3.48-2.92s-3.48,1.1-3.48,2.92v3.1c0,1.82,1.16,2.92,3.48,2.92S222.11,77,222.11,75.2Z"/><path d="M233.19,68.32h1.26V79h-1.26V78a17.11,17.11,0,0,1-4.84,1c-1.42,0-2.38-.94-2.38-2.68v-7l-.72-.8c-.12-.14-.08-.32.14-.32h1.84V76c0,1.46.28,2,1.22,2a18.52,18.52,0,0,0,4.74-1.08Z"/><path d="M243.35,77.92V79h-1.46c-2.46,0-3.54-.68-3.54-3.38V69.38h-2.3V68.32h2.3V64.26l1.26-.2v4.26h3.46l.2,1.06h-3.66V75.6c0,1.94.76,2.32,2.28,2.32Z"/><path d="M258.91,67c0,2.14-1.34,3.26-3.7,4.4.9.84,2.62,2.32,4,3.44a11.42,11.42,0,0,0,.38-3h1.22a10.71,10.71,0,0,1-.62,3.82c.68.62,1.9,1.66,2.46,2.12l-.78.84c-.52-.42-1.6-1.36-2.18-1.88a6.23,6.23,0,0,1-5.24,2.34c-2.52,0-4.46-1.14-4.46-3.78,0-2.1,1.32-3.18,3.26-4.24C251.67,69.52,251,68.8,251,67s1.38-3.14,4-3.14S258.91,65.16,258.91,67Zm-4.82,4.84c-1.66.86-2.88,1.78-2.88,3.46s1.34,2.72,3.2,2.72A5.37,5.37,0,0,0,258.73,76C257.17,74.6,255.61,73.24,254.09,71.84ZM252.25,67c0,1.3.66,2.3,2.1,3.58,2.08-.94,3.3-2,3.3-3.58,0-1.16-.8-2.08-2.7-2.08S252.25,65.84,252.25,67Z"/><path d="M273.09,65.12h-4.48l-.2-1.06h10.52v1.06h-4.58V79h-1.26Z"/><path d="M287.63,76.76a5,5,0,0,1-4.76,2.32c-3,0-4.74-1.48-4.74-3.9V72.12c0-2.42,1.74-3.9,4.74-3.9s4.74,1.48,4.74,3.9V74.2h-8.22v.9c0,1.82,1.16,2.92,3.48,2.92a4.2,4.2,0,0,0,3.76-1.9Zm-8.24-4.56v.94h7V72.2c0-1.82-1.16-2.92-3.48-2.92S279.39,70.38,279.39,72.2Z"/><path d="M293.09,79h-3.66V77.92h3.66c1.86,0,2.78-.62,2.78-1.68s-.4-1.56-2.84-2.2c-2.64-.68-3.6-1.46-3.6-3.1s1.36-2.62,4.1-2.62h2.78l.2,1.06h-3c-1.92,0-2.84.62-2.84,1.56s.58,1.54,2.92,2.12c2.66.7,3.52,1.38,3.52,3.18S295.67,79,293.09,79Z"/><path d="M304.83,77.92V79h-1.46c-2.46,0-3.54-.68-3.54-3.38V69.38h-2.3V68.32h2.3V64.26l1.26-.2v4.26h3.46l.2,1.06h-3.66V75.6c0,1.94.76,2.32,2.28,2.32Z"/></g><g class="cls-9"><path d="M41.75,104.92h6.74V106H41.55a.6.6,0,0,1-.44-.16l-.4-.36a.72.72,0,0,1-.22-.5V92.18l-.72-.8c-.12-.14-.08-.32.14-.32h1.84Z"/><path d="M59,103.76a5,5,0,0,1-4.76,2.32c-3,0-4.74-1.48-4.74-3.9V99.12c0-2.42,1.74-3.9,4.74-3.9S59,96.7,59,99.12v2.08H50.75v.9c0,1.82,1.16,2.92,3.48,2.92a4.2,4.2,0,0,0,3.76-1.9ZM50.75,99.2v.94h7V99.2c0-1.82-1.16-2.92-3.48-2.92S50.75,97.38,50.75,99.2Z"/><path d="M68.41,95.32h1.26v10.82c0,2.36-1.32,3.28-4.34,3.28H62l-.2-1.06h3.52c2.26,0,3.08-.64,3.08-2.32v-1.5a19.74,19.74,0,0,1-4,.64c-1.9,0-3.18-.94-3.18-2.68V97.9c0-1.74,1.28-2.68,3.18-2.68a14.53,14.53,0,0,1,4,.84Zm0,8.12V97.16a15.45,15.45,0,0,0-3.94-.88c-1.56,0-2,.56-2,2v3.8c0,1.46.46,2,2,2A21,21,0,0,0,68.41,103.44Z"/><path d="M76.63,95.32c3.06,0,4.34.94,4.34,3.38V106H79.71v-1.1a9.88,9.88,0,0,1-4.1,1.2c-1.9,0-3.34-1-3.34-2.9v-1c0-1.9,1.36-2.9,3.74-2.9h3.7v-.6c0-1.68-.82-2.32-3.08-2.32H73.11V95.32Zm3.08,8.5v-3.46H76c-1.64,0-2.48.64-2.48,1.92v.82A1.86,1.86,0,0,0,75.61,105,9.88,9.88,0,0,0,79.71,103.82Z"/><path d="M84.37,106V90.26h1.26V106Z"/><path d="M104.15,106h-1.38l-3.36-6.56H95.29V106H94V92.18l-.72-.8c-.12-.14-.08-.32.14-.32h5.48c3,0,4.5,1,4.5,3.38V96a3,3,0,0,1-2.7,3.24Zm-8.86-7.62h3.64c2.4,0,3.24-.78,3.24-2.54v-1.2c0-1.76-.84-2.52-3.24-2.52H95.29Z"/><path d="M114.73,103.76a5,5,0,0,1-4.76,2.32c-3,0-4.74-1.48-4.74-3.9V99.12c0-2.42,1.74-3.9,4.74-3.9s4.74,1.48,4.74,3.9v2.08h-8.22v.9c0,1.82,1.16,2.92,3.48,2.92a4.2,4.2,0,0,0,3.76-1.9Zm-8.24-4.56v.94h7V99.2c0-1.82-1.16-2.92-3.48-2.92S106.49,97.38,106.49,99.2Z"/><path d="M125.61,97.9V103c0,1.74-1.28,2.68-3.18,2.68a19.74,19.74,0,0,1-4-.64v4.58h-1.26V96.44l-.72-.8c-.12-.14-.08-.32.14-.32h1.84v.74a14.53,14.53,0,0,1,4-.84C124.33,95.22,125.61,96.16,125.61,97.9Zm-1.26.4c0-1.46-.46-2-2-2a15.45,15.45,0,0,0-3.94.88v6.78a21,21,0,0,0,3.94.68c1.56,0,2-.56,2-2Z"/><path d="M128,102.28V99c0-2.42,1.74-3.9,4.74-3.9s4.74,1.48,4.74,3.9v3.26c0,2.42-1.74,3.9-4.74,3.9S128,104.7,128,102.28Zm8.22-.08V99.1c0-1.82-1.16-2.92-3.48-2.92s-3.48,1.1-3.48,2.92v3.1c0,1.82,1.16,2.92,3.48,2.92S136.23,104,136.23,102.2Z"/><path d="M146.69,96.38h-2.62c-2,0-2.72.84-2.72,2.72V106h-1.26V99c0-2.56,1.32-3.66,3.9-3.66h2.5Z"/><path d="M154.79,104.92V106h-1.46c-2.46,0-3.54-.68-3.54-3.38V96.38h-2.3V95.32h2.3V91.26l1.26-.2v4.26h3.46l.2,1.06h-3.66v6.22c0,1.94.76,2.32,2.28,2.32Z"/><path d="M161.39,102.28V99c0-2.42,1.74-3.9,4.74-3.9s4.74,1.48,4.74,3.9v3.26c0,2.42-1.74,3.9-4.74,3.9S161.39,104.7,161.39,102.28Zm8.22-.08V99.1c0-1.82-1.16-2.92-3.48-2.92s-3.48,1.1-3.48,2.92v3.1c0,1.82,1.16,2.92,3.48,2.92S169.61,104,169.61,102.2Z"/><path d="M182,97.9V106h-1.26V98.3c0-1.46-.28-2-1.22-2a18.35,18.35,0,0,0-4.74,1.08V106h-1.26V96.44l-.72-.8c-.12-.14-.08-.32.14-.32h1.84v.94a17.11,17.11,0,0,1,4.84-1C181,95.22,182,96.16,182,97.9Z"/><path d="M195.85,104.92V106h-1.46c-2.46,0-3.54-.68-3.54-3.38V96.38h-2.3V95.32h2.3V91.26l1.26-.2v4.26h3.46l.2,1.06h-3.66v6.22c0,1.94.76,2.32,2.28,2.32Z"/><path d="M206.13,97.9V106h-1.26V98.3c0-1.46-.28-2-1.22-2a23.32,23.32,0,0,0-4.74.88V106h-1.26V91.38l-.72-.8c-.12-.14-.08-.32.14-.32h1.84v5.8a21.72,21.72,0,0,1,4.84-.84C205.15,95.22,206.13,96.16,206.13,97.9Z"/><path d="M218,103.76a5,5,0,0,1-4.76,2.32c-3,0-4.74-1.48-4.74-3.9V99.12c0-2.42,1.74-3.9,4.74-3.9S218,96.7,218,99.12v2.08h-8.22v.9c0,1.82,1.16,2.92,3.48,2.92a4.2,4.2,0,0,0,3.76-1.9Zm-8.24-4.56v.94h7V99.2c0-1.82-1.16-2.92-3.48-2.92S209.79,97.38,209.79,99.2Z"/><path d="M233.91,97.9V103c0,1.74-1.28,2.68-3.18,2.68a19.74,19.74,0,0,1-4-.64v4.58h-1.26V96.44l-.72-.8c-.12-.14-.08-.32.14-.32h1.84v.74a14.53,14.53,0,0,1,4-.84C232.63,95.22,233.91,96.16,233.91,97.9Zm-1.26.4c0-1.46-.46-2-2-2a15.45,15.45,0,0,0-3.94.88v6.78a21,21,0,0,0,3.94.68c1.56,0,2-.56,2-2Z"/><path d="M243.11,96.38h-2.62c-2,0-2.72.84-2.72,2.72V106h-1.26V99c0-2.56,1.32-3.66,3.9-3.66h2.5Z"/><path d="M243.71,102.28V99c0-2.42,1.74-3.9,4.74-3.9s4.74,1.48,4.74,3.9v3.26c0,2.42-1.74,3.9-4.74,3.9S243.71,104.7,243.71,102.28Zm8.22-.08V99.1c0-1.82-1.16-2.92-3.48-2.92S245,97.28,245,99.1v3.1c0,1.82,1.16,2.92,3.48,2.92S251.93,104,251.93,102.2Z"/><path d="M256.91,95.32h1.26v11.32c0,2-.9,2.78-2.94,2.78h-1.54l-.2-1.06h1.74c1.12,0,1.68-.28,1.68-1.72Zm-.2-4.06h1.66v1.66h-1.66Z"/><path d="M270.91,103.76a5,5,0,0,1-4.76,2.32c-3,0-4.74-1.48-4.74-3.9V99.12c0-2.42,1.74-3.9,4.74-3.9s4.74,1.48,4.74,3.9v2.08h-8.22v.9c0,1.82,1.16,2.92,3.48,2.92a4.2,4.2,0,0,0,3.76-1.9Zm-8.24-4.56v.94h7V99.2c0-1.82-1.16-2.92-3.48-2.92S262.67,97.38,262.67,99.2Z"/><path d="M281.61,102.72l1,.64a5,5,0,0,1-4.86,2.72c-2.94,0-4.64-1.48-4.64-3.9V99.12c0-2.42,1.7-3.9,4.64-3.9a4.8,4.8,0,0,1,4.66,2.52l-1,.64a3.94,3.94,0,0,0-3.66-2.1c-2.26,0-3.38,1.1-3.38,2.92v2.9c0,1.82,1.12,2.92,3.38,2.92A4.12,4.12,0,0,0,281.61,102.72Z"/><path d="M290.51,104.92V106h-1.46c-2.46,0-3.54-.68-3.54-3.38V96.38h-2.3V95.32h2.3V91.26l1.26-.2v4.26h3.46l.2,1.06h-3.66v6.22c0,1.94.76,2.32,2.28,2.32Z"/></g><g class="cls-9"><path class="cls-10" d="M116.25,186.7l-4.91-.76c.53-4.46,2.62-6.37,7.31-6.37s7,2,7,5.74c0,3.18-1.49,5.44-3.7,7.81l-3.56,3.81h7.13v4.66H111.74v-4.41l5.22-5.8c2.09-2.34,3.17-3.67,3.17-5.31,0-1.31-.55-1.82-1.76-1.82S116.53,185.26,116.25,186.7Z"/><path class="cls-10" d="M128,186.07c0-4.76,3.1-6.5,7.26-6.5s7.25,1.74,7.25,6.5v9.39c0,4.77-3.09,6.5-7.25,6.5s-7.26-1.73-7.26-6.5Zm5.55,8.46c0,1.92.78,2.77,1.71,2.77s1.71-.85,1.71-2.77V187c0-1.92-.78-2.77-1.71-2.77s-1.71.85-1.71,2.77Z"/><path class="cls-10" d="M149.65,186.7l-4.91-.76c.53-4.46,2.62-6.37,7.3-6.37s7.06,2,7.06,5.74c0,3.18-1.49,5.44-3.71,7.81l-3.55,3.81H159v4.66H145.14v-4.41l5.22-5.8c2.09-2.34,3.17-3.67,3.17-5.31,0-1.31-.55-1.82-1.76-1.82S149.93,185.26,149.65,186.7Z"/><path class="cls-10" d="M161.36,186.07c0-4.76,3.1-6.5,7.26-6.5s7.25,1.74,7.25,6.5v9.39c0,4.77-3.1,6.5-7.25,6.5s-7.26-1.73-7.26-6.5Zm5.54,8.46c0,1.92.78,2.77,1.72,2.77s1.71-.85,1.71-2.77V187c0-1.92-.78-2.77-1.71-2.77s-1.72.85-1.72,2.77Z"/><path class="cls-10" d="M199.09,184.86v1.08a4.57,4.57,0,0,1-2.19,4.36,4.6,4.6,0,0,1,2.47,4.43v1.44c0,3.53-2.24,5.79-7.51,5.79-4.83,0-6.92-1.91-7.43-6.37l5-.76c.33,1.47.93,2.47,2.39,2.47a1.76,1.76,0,0,0,1.94-1.86v-1.06c0-1-.63-1.56-1.84-1.56h-3.09v-4.66H192c1.21,0,1.59-.56,1.59-1.71v-.63a1.42,1.42,0,0,0-1.56-1.59,2.19,2.19,0,0,0-2.27,2l-5-.75c.51-4.11,2.55-5.87,7.31-5.87C196.55,179.57,199.09,181.33,199.09,184.86Z"/><path class="cls-10" d="M218.34,203.8h-5.8l-.83-2.09a6.07,6.07,0,0,1-1.81.25c-4.36,0-7.76-1.73-7.76-5.49V185.06c0-3.75,3.4-5.49,8-5.49s8,1.74,8,5.49v11.41a4.71,4.71,0,0,1-1.61,3.68Zm-10.66-8.51c0,1.33,1.13,2,2.47,2s2.47-.68,2.47-2v-9c0-1.33-1.14-2-2.47-2s-2.47.68-2.47,2Z"/></g><g class="cls-9"><path d="M4.29,227.74h7.24v1.06H4.09a.6.6,0,0,1-.44-.16l-.4-.36a.72.72,0,0,1-.22-.5V215l-.72-.8c-.12-.14-.08-.32.14-.32h8.88v1.06h-7v5.46h6.62v1.06H4.29Z"/><path d="M23.45,228.82H22.07l-3.36-6.56H14.59v6.54H13.33V215l-.72-.8c-.12-.14-.08-.32.14-.32h5.48c3,0,4.5,1,4.5,3.38v1.6A3,3,0,0,1,20,222.1Zm-8.86-7.62h3.64c2.4,0,3.24-.78,3.24-2.54v-1.2c0-1.76-.84-2.52-3.24-2.52H14.59Z"/><path d="M34.25,225.48l1,.56a5.51,5.51,0,0,1-5.18,3c-3.38,0-5.18-1.52-5.18-4.5v-6.32c0-3.16,1.8-4.5,5.18-4.5a5.3,5.3,0,0,1,5,2.76l-1,.56a4.34,4.34,0,0,0-3.94-2.26c-2.66,0-3.92,1.18-3.92,3.72v5.76c0,2.54,1.26,3.72,3.92,3.72A4.55,4.55,0,0,0,34.25,225.48Z"/><path d="M41.21,214.84c-1.64,0-2.5.84-3.42,2.14l-1.1-.48a4.83,4.83,0,0,1,4.52-2.72c2,0,4.22.88,4.22,3.3,0,2.22-1,3.54-3.52,6.5l-3.56,4.16h7.12v1.06h-8.7v-1.06l4.2-4.9c2-2.32,3.2-3.74,3.2-5.76C44.17,215.52,42.89,214.84,41.21,214.84Z"/><path d="M47.67,223.8v-4.92c0-3.36,1.7-5.1,4.58-5.1s4.58,1.74,4.58,5.1v4.92c0,3.18-1.7,5.1-4.58,5.1S47.67,227,47.67,223.8Zm7.9-.08V219c0-2.6-1.16-4.12-3.32-4.12s-3.32,1.52-3.32,4.12v4.76c0,2.6,1.16,4.12,3.32,4.12S55.57,226.32,55.57,223.72Z"/><path d="M73.83,217.26v1.8c0,2.34-1.48,3.4-4.5,3.4H65.69v6.34H64.43V215l-.72-.8c-.12-.14-.08-.32.14-.32h5.48C72.35,213.88,73.83,214.92,73.83,217.26Zm-1.26.2c0-1.76-.84-2.52-3.24-2.52H65.69v6.46h3.64c2.4,0,3.24-.78,3.24-2.54Z"/><path d="M76.63,228.8V213.08h1.26V228.8Z"/><path d="M85.45,218.14c3.06,0,4.34.94,4.34,3.38v7.28H88.53v-1.1a9.88,9.88,0,0,1-4.1,1.2c-1.9,0-3.34-1-3.34-2.9v-1c0-1.9,1.36-2.9,3.74-2.9h3.7v-.6c0-1.68-.82-2.32-3.08-2.32H81.93v-1.06Zm3.08,8.5v-3.46h-3.7c-1.64,0-2.48.64-2.48,1.92v.82a1.86,1.86,0,0,0,2.08,1.92A9.88,9.88,0,0,0,88.53,226.64Z"/><path d="M98.09,227.74v1.06H96.63c-2.46,0-3.54-.68-3.54-3.38V219.2h-2.3v-1.06h2.3v-4.06l1.26-.2v4.26h3.46l.2,1.06H94.35v6.22c0,1.94.76,2.32,2.28,2.32Z"/><path d="M104.91,214.14c-1.52,0-2.28.38-2.28,2.32v1.68h4v1.06h-4v9.6h-1.26v-9.6H98.89l-.2-1.06h2.68v-1.68c0-2.7,1.08-3.38,3.54-3.38h1.74v1.06Z"/><path d="M107.25,225.1v-3.26c0-2.42,1.74-3.9,4.74-3.9s4.74,1.48,4.74,3.9v3.26c0,2.42-1.74,3.9-4.74,3.9S107.25,227.52,107.25,225.1Zm8.22-.08v-3.1c0-1.82-1.16-2.92-3.48-2.92s-3.48,1.1-3.48,2.92V225c0,1.82,1.16,2.92,3.48,2.92S115.47,226.84,115.47,225Z"/><path d="M125.93,219.2h-2.62c-2,0-2.72.84-2.72,2.72v6.88h-1.26v-7c0-2.56,1.32-3.66,3.9-3.66h2.5Z"/><path d="M140.55,220.72v8.08h-1.26v-7.88c0-1.26-.38-1.82-1.22-1.82a13,13,0,0,0-3.48.8,3.46,3.46,0,0,1,.08.82v8.08h-1.26v-7.88c0-1.26-.38-1.82-1.22-1.82a11.69,11.69,0,0,0-3.4.9v8.8h-1.26v-9.54l-.72-.8c-.12-.14-.08-.32.14-.32h1.84v.76a11.85,11.85,0,0,1,3.5-.86,2.22,2.22,0,0,1,1.88.88,15,15,0,0,1,4-.88C139.57,218,140.55,219,140.55,220.72Z"/><path d="M159.31,213.88h2.12V228.8h-1.26V214.88l-4.58,10.76h-1.4l-4.58-10.76V228.8h-1.26V215l-.72-.8c-.12-.14-.08-.32.14-.32h2.7l4.42,10.62Z"/><path d="M168.39,218.14c3.06,0,4.34.94,4.34,3.38v7.28h-1.26v-1.1a9.88,9.88,0,0,1-4.1,1.2c-1.9,0-3.34-1-3.34-2.9v-1c0-1.9,1.36-2.9,3.74-2.9h3.7v-.6c0-1.68-.82-2.32-3.08-2.32h-3.52v-1.06Zm3.08,8.5v-3.46h-3.7c-1.64,0-2.48.64-2.48,1.92v.82a1.86,1.86,0,0,0,2.08,1.92A9.88,9.88,0,0,0,171.47,226.64Z"/><path d="M176,215.74v-1.66h1.66v1.66Zm.2,13.06V218.14h1.26V228.8Z"/><path d="M189.35,220.72v8.08h-1.26v-7.68c0-1.46-.28-2-1.22-2a18.35,18.35,0,0,0-4.74,1.08v8.62h-1.26v-9.54l-.72-.8c-.12-.14-.08-.32.14-.32h1.84v.94a17.11,17.11,0,0,1,4.84-1C188.39,218,189.35,219,189.35,220.72Z"/><path d="M192,220.5h6.4v1.06H192Z"/><path d="M209.43,220.72v8.08h-1.26v-7.68c0-1.46-.28-2-1.22-2a18.35,18.35,0,0,0-4.74,1.08v8.62H201v-9.54l-.72-.8c-.12-.14-.08-.32.14-.32h1.84v.94a17.11,17.11,0,0,1,4.84-1C208.47,218,209.43,219,209.43,220.72Z"/><path d="M221.53,226.58a5,5,0,0,1-4.76,2.32c-3,0-4.74-1.48-4.74-3.9v-3.06c0-2.42,1.74-3.9,4.74-3.9s4.74,1.48,4.74,3.9V224h-8.22v.9c0,1.82,1.16,2.92,3.48,2.92a4.2,4.2,0,0,0,3.76-1.9ZM213.29,222V223h7V222c0-1.82-1.16-2.92-3.48-2.92S213.29,220.2,213.29,222Z"/><path d="M229.83,227.74v1.06h-1.46c-2.46,0-3.54-.68-3.54-3.38V219.2h-2.3v-1.06h2.3v-4.06l1.26-.2v4.26h3.46l.2,1.06h-3.66v6.22c0,1.94.76,2.32,2.28,2.32Z"/><path d="M237.89,227.74h6.74v1.06h-6.94a.6.6,0,0,1-.44-.16l-.4-.36a.72.72,0,0,1-.22-.5V215l-.72-.8c-.12-.14-.08-.32.14-.32h1.84Z"/><path d="M250,218.14c3.06,0,4.34.94,4.34,3.38v7.28h-1.26v-1.1a9.88,9.88,0,0,1-4.1,1.2c-1.9,0-3.34-1-3.34-2.9v-1c0-1.9,1.36-2.9,3.74-2.9h3.7v-.6c0-1.68-.82-2.32-3.08-2.32h-3.52v-1.06Zm3.08,8.5v-3.46h-3.7c-1.64,0-2.48.64-2.48,1.92v.82a1.86,1.86,0,0,0,2.08,1.92A9.88,9.88,0,0,0,253.07,226.64Z"/><path d="M264.35,218.14h1.26V228.8h-1.26v-.94a17.11,17.11,0,0,1-4.84,1c-1.42,0-2.38-.94-2.38-2.68v-7l-.72-.8c-.12-.14-.08-.32.14-.32h1.84v7.68c0,1.46.28,2,1.22,2a18.52,18.52,0,0,0,4.74-1.08Z"/><path d="M276.89,220.72v8.08h-1.26v-7.68c0-1.46-.28-2-1.22-2a18.35,18.35,0,0,0-4.74,1.08v8.62h-1.26v-9.54l-.72-.8c-.12-.14-.08-.32.14-.32h1.84v.94a17.11,17.11,0,0,1,4.84-1C275.93,218,276.89,219,276.89,220.72Z"/><path d="M288,225.54l1,.64a5,5,0,0,1-4.86,2.72c-2.94,0-4.64-1.48-4.64-3.9v-3.06c0-2.42,1.7-3.9,4.64-3.9a4.8,4.8,0,0,1,4.66,2.52l-1,.64a3.94,3.94,0,0,0-3.66-2.1c-2.26,0-3.38,1.1-3.38,2.92v2.9c0,1.82,1.12,2.92,3.38,2.92A4.12,4.12,0,0,0,288,225.54Z"/><path d="M299.47,220.72v8.08h-1.26v-7.68c0-1.46-.28-2-1.22-2a23.32,23.32,0,0,0-4.74.88v8.82H291V214.2l-.72-.8c-.12-.14-.08-.32.14-.32h1.84v5.8a21.72,21.72,0,0,1,4.84-.84C298.49,218,299.47,219,299.47,220.72Z"/><path d="M302.51,215.74v-1.66h1.66v1.66Zm.2,13.06V218.14H304V228.8Z"/><path d="M315.89,220.72v8.08h-1.26v-7.68c0-1.46-.28-2-1.22-2a18.35,18.35,0,0,0-4.74,1.08v8.62h-1.26v-9.54l-.72-.8c-.12-.14-.08-.32.14-.32h1.84v.94a17.11,17.11,0,0,1,4.84-1C314.93,218,315.89,219,315.89,220.72Z"/><path d="M325.71,218.14H327V229c0,2.36-1.32,3.28-4.34,3.28h-3.32l-.2-1.06h3.52c2.26,0,3.08-.64,3.08-2.32v-1.5a19.74,19.74,0,0,1-4,.64c-1.9,0-3.18-.94-3.18-2.68v-4.6c0-1.74,1.28-2.68,3.18-2.68a14.53,14.53,0,0,1,4,.84Zm0,8.12V220a15.45,15.45,0,0,0-3.94-.88c-1.56,0-2,.56-2,2v3.8c0,1.46.46,2,2,2A21,21,0,0,0,325.71,226.26Z"/></g><g class="cls-9"><path d="M120.25,251v1.16c0,2.56-1.9,3.62-4.62,3.62h-4a.6.6,0,0,1-.44-.16l-.4-.36a.72.72,0,0,1-.22-.5V242l-.72-.8c-.12-.14-.08-.32.14-.32h5.68c2.88,0,4.42,1.22,4.42,3.34v.9a2.84,2.84,0,0,1-1.92,2.78A3.16,3.16,0,0,1,120.25,251Zm-8.46-9.08v5.46H116c1.46,0,2.76-.58,2.76-2.34v-.64c0-1.4-.72-2.48-3.16-2.48Zm7.2,9.28c0-1.54-.78-2.76-3-2.76h-4.24v6.28h3.84c2,0,3.36-.7,3.36-2.62Z"/><path d="M131.75,253.58A5,5,0,0,1,127,255.9c-3,0-4.74-1.48-4.74-3.9v-3.06c0-2.42,1.74-3.9,4.74-3.9s4.74,1.48,4.74,3.9V251h-8.22v.9c0,1.82,1.16,2.92,3.48,2.92a4.2,4.2,0,0,0,3.76-1.9ZM123.51,249V250h7V249c0-1.82-1.16-2.92-3.48-2.92S123.51,247.2,123.51,249Z"/><path d="M140.05,254.74v1.06h-1.46c-2.46,0-3.54-.68-3.54-3.38V246.2h-2.3v-1.06h2.3v-4.06l1.26-.2v4.26h3.46l.2,1.06h-3.66v6.22c0,1.94.76,2.32,2.28,2.32Z"/><path d="M145.61,245.14c3.06,0,4.34.94,4.34,3.38v7.28h-1.26v-1.1a9.88,9.88,0,0,1-4.1,1.2c-1.9,0-3.34-1-3.34-2.9v-1c0-1.9,1.36-2.9,3.74-2.9h3.7v-.6c0-1.68-.82-2.32-3.08-2.32h-3.52v-1.06Zm3.08,8.5v-3.46H145c-1.64,0-2.48.64-2.48,1.92v.82a1.86,1.86,0,0,0,2.08,1.92A9.88,9.88,0,0,0,148.69,253.64Z"/><path d="M161,241.94h-4.48l-.2-1.06h10.52v1.06h-4.58V255.8H161Z"/><path d="M175.57,253.58a5,5,0,0,1-4.76,2.32c-3,0-4.74-1.48-4.74-3.9v-3.06c0-2.42,1.74-3.9,4.74-3.9s4.74,1.48,4.74,3.9V251h-8.22v.9c0,1.82,1.16,2.92,3.48,2.92a4.2,4.2,0,0,0,3.76-1.9ZM167.33,249V250h7V249c0-1.82-1.16-2.92-3.48-2.92S167.33,247.2,167.33,249Z"/><path d="M181,255.8h-3.66v-1.06H181c1.86,0,2.78-.62,2.78-1.68s-.4-1.56-2.84-2.2c-2.64-.68-3.6-1.46-3.6-3.1s1.36-2.62,4.1-2.62h2.78l.2,1.06h-3c-1.92,0-2.84.62-2.84,1.56s.58,1.54,2.92,2.12c2.66.7,3.52,1.38,3.52,3.18S183.61,255.8,181,255.8Z"/><path d="M192.77,254.74v1.06h-1.46c-2.46,0-3.54-.68-3.54-3.38V246.2h-2.3v-1.06h2.3v-4.06l1.26-.2v4.26h3.46l.2,1.06H189v6.22c0,1.94.76,2.32,2.28,2.32Z"/><path d="M195,242.74v-1.66h1.66v1.66Zm.2,13.06V245.14h1.26V255.8Z"/><path d="M208.39,247.72v8.08h-1.26v-7.68c0-1.46-.28-2-1.22-2a18.35,18.35,0,0,0-4.74,1.08v8.62h-1.26v-9.54l-.72-.8c-.12-.14-.08-.32.14-.32h1.84v.94a17.11,17.11,0,0,1,4.84-1C207.43,245,208.39,246,208.39,247.72Z"/><path d="M218.21,245.14h1.26V256c0,2.36-1.32,3.28-4.34,3.28h-3.32l-.2-1.06h3.52c2.26,0,3.08-.64,3.08-2.32v-1.5a19.74,19.74,0,0,1-4,.64c-1.9,0-3.18-.94-3.18-2.68v-4.6c0-1.74,1.28-2.68,3.18-2.68a14.53,14.53,0,0,1,4,.84Zm0,8.12V247a15.45,15.45,0,0,0-3.94-.88c-1.56,0-2,.56-2,2v3.8c0,1.46.46,2,2,2A21,21,0,0,0,218.21,253.26Z"/></g><text class="cls-11" transform="translate(110.66 348.44)">2020 4Q</text><g class="cls-9"><path d="M51.72,364.86h2.12v14.92H52.58V365.86L48,376.62h-1.4L42,365.86v13.92H40.75V366l-.72-.8c-.12-.14-.08-.32.14-.32h2.7l4.42,10.62Z"/><path d="M60.79,369.12c3.06,0,4.34.94,4.34,3.38v7.28H63.87v-1.1a9.88,9.88,0,0,1-4.1,1.2c-1.9,0-3.34-1-3.34-2.9v-1c0-1.9,1.36-2.9,3.74-2.9h3.7v-.6c0-1.68-.82-2.32-3.08-2.32H57.27v-1.06Zm3.08,8.5v-3.46h-3.7c-1.64,0-2.48.64-2.48,1.92v.82a1.86,1.86,0,0,0,2.08,1.92A9.88,9.88,0,0,0,63.87,377.62Z"/><path d="M68.37,366.72v-1.66H70v1.66Zm.2,13.06V369.12h1.26v10.66Z"/><path d="M81.75,371.7v8.08H80.49V372.1c0-1.46-.28-2-1.22-2a18.35,18.35,0,0,0-4.74,1.08v8.62H73.27v-9.54l-.72-.8c-.12-.14-.08-.32.14-.32h1.84v.94a17.11,17.11,0,0,1,4.84-1C80.79,369,81.75,370,81.75,371.7Z"/><path d="M84.35,371.48h6.4v1.06h-6.4Z"/><path d="M101.83,371.7v8.08h-1.26V372.1c0-1.46-.28-2-1.22-2a18.35,18.35,0,0,0-4.74,1.08v8.62H93.35v-9.54l-.72-.8c-.12-.14-.08-.32.14-.32h1.84v.94a17.11,17.11,0,0,1,4.84-1C100.87,369,101.83,370,101.83,371.7Z"/><path d="M113.93,377.56a5,5,0,0,1-4.76,2.32c-3,0-4.74-1.48-4.74-3.9v-3.06c0-2.42,1.74-3.9,4.74-3.9s4.74,1.48,4.74,3.9V375h-8.22v.9c0,1.82,1.16,2.92,3.48,2.92a4.2,4.2,0,0,0,3.76-1.9ZM105.69,373v.94h7V373c0-1.82-1.16-2.92-3.48-2.92S105.69,371.18,105.69,373Z"/><path d="M122.23,378.72v1.06h-1.46c-2.46,0-3.54-.68-3.54-3.38v-6.22h-2.3v-1.06h2.3v-4.06l1.26-.2v4.26H122l.2,1.06h-3.66v6.22c0,1.94.76,2.32,2.28,2.32Z"/><path d="M137.73,364.86H139v10.52c0,3-1.74,4.5-5,4.5s-5-1.52-5-4.5V366l-.72-.8c-.12-.14-.08-.32.14-.32h1.84V375.1c0,2.54,1.2,3.72,3.72,3.72s3.72-1.18,3.72-3.72Z"/><path d="M150.27,371.7v5.1c0,1.74-1.28,2.68-3.18,2.68a19.74,19.74,0,0,1-4-.64v4.58h-1.26V370.24l-.72-.8c-.12-.14-.08-.32.14-.32h1.84v.74a14.53,14.53,0,0,1,4-.84C149,369,150.27,370,150.27,371.7Zm-1.26.4c0-1.46-.46-2-2-2a15.45,15.45,0,0,0-3.94.88v6.78a21,21,0,0,0,3.94.68c1.56,0,2-.56,2-2Z"/><path d="M159.89,369.12h1.26v10.82c0,2.36-1.32,3.28-4.34,3.28h-3.32l-.2-1.06h3.52c2.26,0,3.08-.64,3.08-2.32v-1.5a19.74,19.74,0,0,1-4,.64c-1.9,0-3.18-.94-3.18-2.68v-4.6c0-1.74,1.28-2.68,3.18-2.68a14.53,14.53,0,0,1,4,.84Zm0,8.12V371a15.45,15.45,0,0,0-3.94-.88c-1.56,0-2,.56-2,2v3.8c0,1.46.46,2,2,2A21,21,0,0,0,159.89,377.24Z"/><path d="M170.55,370.18h-2.62c-2,0-2.72.84-2.72,2.72v6.88H164v-7c0-2.56,1.32-3.66,3.9-3.66h2.5Z"/><path d="M175.31,369.12c3.06,0,4.34.94,4.34,3.38v7.28h-1.26v-1.1a9.88,9.88,0,0,1-4.1,1.2c-1.9,0-3.34-1-3.34-2.9v-1c0-1.9,1.36-2.9,3.74-2.9h3.7v-.6c0-1.68-.82-2.32-3.08-2.32h-3.52v-1.06Zm3.08,8.5v-3.46h-3.7c-1.64,0-2.48.64-2.48,1.92v.82a1.86,1.86,0,0,0,2.08,1.92A9.88,9.88,0,0,0,178.39,377.62Z"/><path d="M189.47,369.12h1.26v10.82c0,2.36-1.32,3.28-4.34,3.28h-3.32l-.2-1.06h3.52c2.26,0,3.08-.64,3.08-2.32v-1.5a19.74,19.74,0,0,1-4,.64c-1.9,0-3.18-.94-3.18-2.68v-4.6c0-1.74,1.28-2.68,3.18-2.68a14.53,14.53,0,0,1,4,.84Zm0,8.12V371a15.45,15.45,0,0,0-3.94-.88c-1.56,0-2,.56-2,2v3.8c0,1.46.46,2,2,2A21,21,0,0,0,189.47,377.24Z"/><path d="M202.83,377.56a5,5,0,0,1-4.76,2.32c-3,0-4.74-1.48-4.74-3.9v-3.06c0-2.42,1.74-3.9,4.74-3.9s4.74,1.48,4.74,3.9V375h-8.22v.9c0,1.82,1.16,2.92,3.48,2.92a4.2,4.2,0,0,0,3.76-1.9ZM194.59,373v.94h7V373c0-1.82-1.16-2.92-3.48-2.92S194.59,371.18,194.59,373Z"/><path d="M216.33,378.72v1.06h-1.46c-2.46,0-3.54-.68-3.54-3.38v-6.22H209v-1.06h2.3v-4.06l1.26-.2v4.26h3.46l.2,1.06h-3.66v6.22c0,1.94.76,2.32,2.28,2.32Z"/><path d="M217.53,376.08v-3.26c0-2.42,1.74-3.9,4.74-3.9s4.74,1.48,4.74,3.9v3.26c0,2.42-1.74,3.9-4.74,3.9S217.53,378.5,217.53,376.08Zm8.22-.08v-3.1c0-1.82-1.16-2.92-3.48-2.92s-3.48,1.1-3.48,2.92V376c0,1.82,1.16,2.92,3.48,2.92S225.75,377.82,225.75,376Z"/><path d="M237,371.92l6.62,7.86H242l-6.12-7.34v7.34h-1.26V366l-.72-.8c-.12-.14-.08-.32.14-.32h1.84v6.52l5.9-6.52h1.68Z"/><path d="M245.63,379.78V364.06h1.26v15.72Z"/><path d="M254.45,369.12c3.06,0,4.34.94,4.34,3.38v7.28h-1.26v-1.1a9.88,9.88,0,0,1-4.1,1.2c-1.9,0-3.34-1-3.34-2.9v-1c0-1.9,1.36-2.9,3.74-2.9h3.7v-.6c0-1.68-.82-2.32-3.08-2.32h-3.52v-1.06Zm3.08,8.5v-3.46h-3.7c-1.64,0-2.48.64-2.48,1.92v.82a1.86,1.86,0,0,0,2.08,1.92A9.88,9.88,0,0,0,257.53,377.62Z"/><path d="M268.81,369.12h1.26v10.82c0,2.36-1.32,3.28-4.34,3.28h-3.52l-.2-1.06h3.72c2.26,0,3.08-.64,3.08-2.32v-1.9a17.11,17.11,0,0,1-4.84,1c-1.42,0-2.38-.94-2.38-2.68v-6.06l-.72-.8c-.12-.14-.08-.32.14-.32h1.84v6.78c0,1.46.28,2,1.22,2a18.35,18.35,0,0,0,4.74-1.08Z"/><path d="M279,378.72v1.06h-1.46c-2.46,0-3.54-.68-3.54-3.38v-6.22h-2.3v-1.06H274v-4.06l1.26-.2v4.26h3.46l.2,1.06h-3.66v6.22c0,1.94.76,2.32,2.28,2.32Z"/><path d="M289.25,371.7v8.08H288V372.1c0-1.46-.28-2-1.22-2a18.35,18.35,0,0,0-4.74,1.08v8.62h-1.26v-9.54l-.72-.8c-.12-.14-.08-.32.14-.32H282v.94a17.11,17.11,0,0,1,4.84-1C288.29,369,289.25,370,289.25,371.7Z"/></g><g class="cls-9"><path class="cls-10" d="M120.27,467.91l-4.91-.76c.53-4.46,2.62-6.37,7.31-6.37s7,2,7,5.74c0,3.18-1.49,5.44-3.7,7.81l-3.55,3.81h7.12v4.66H115.76v-4.41l5.22-5.8c2.09-2.34,3.17-3.67,3.17-5.31,0-1.31-.55-1.82-1.76-1.82S120.55,466.47,120.27,467.91Z"/><path class="cls-10" d="M132,467.28c0-4.76,3.1-6.5,7.26-6.5s7.26,1.74,7.26,6.5v9.39c0,4.77-3.1,6.5-7.26,6.5s-7.26-1.73-7.26-6.5Zm5.55,8.46c0,1.92.78,2.77,1.71,2.77s1.71-.85,1.71-2.77v-7.53c0-1.92-.78-2.77-1.71-2.77s-1.71.85-1.71,2.77Z"/><path class="cls-10" d="M153.67,467.91l-4.91-.76c.53-4.46,2.62-6.37,7.3-6.37s7.06,2,7.06,5.74c0,3.18-1.49,5.44-3.7,7.81l-3.56,3.81H163v4.66H149.16v-4.41l5.22-5.8c2.09-2.34,3.17-3.67,3.17-5.31,0-1.31-.55-1.82-1.76-1.82S154,466.47,153.67,467.91Z"/><path class="cls-10" d="M169.67,461.16H175V482.8h-5.55V467.45l-3.4,1.84-2.64-4.58Z"/><path class="cls-10" d="M188.81,461.16h5.29V482.8h-5.55V467.45l-3.4,1.84-2.64-4.58Z"/><path class="cls-10" d="M213.32,485h-5.8l-.83-2.09a6.07,6.07,0,0,1-1.81.25c-4.36,0-7.76-1.73-7.76-5.49V466.27c0-3.75,3.4-5.49,8-5.49s8,1.74,8,5.49v11.41a4.74,4.74,0,0,1-1.61,3.68Zm-10.66-8.51c0,1.33,1.13,2,2.47,2s2.47-.68,2.47-2v-9.05c0-1.33-1.14-2-2.47-2s-2.47.68-2.47,2Z"/></g><g class="cls-9"><path d="M32.79,504.24l6.62,7.87H37.77l-6.12-7.35v7.35H30.39V498.3l-.72-.8c-.12-.14-.08-.32.14-.32h1.84v6.52l5.9-6.52h1.68Z"/><path d="M42.47,512.11H41.21V498.3l-.72-.8c-.12-.14-.08-.32.14-.32h1.84Z"/><path d="M55.27,500.56v1.8c0,2.34-1.48,3.4-4.5,3.4H47.13v6.35H45.87V498.3l-.72-.8c-.12-.14-.08-.32.14-.32h5.48C53.79,497.18,55.27,498.22,55.27,500.56Zm-1.26.2c0-1.76-.84-2.52-3.24-2.52H47.13v6.46h3.64c2.4,0,3.24-.78,3.24-2.54Z"/><path d="M56.87,497.18h9v1l-4.56,14H60.05l4.52-13.87H58.13v3.56H56.87Z"/><path d="M71.35,514.11a15.15,15.15,0,0,1,0-18.31h1.18a15.47,15.47,0,0,0,0,18.31Z"/><path d="M77.13,504.24l6.62,7.87H82.11L76,504.76v7.35H74.73V498.3l-.72-.8c-.12-.14-.08-.32.14-.32H76v6.52l5.9-6.52h1.68Z"/><path d="M85.75,512.11V496.38H87v15.73Z"/><path d="M94.57,501.44c3.06,0,4.34.94,4.34,3.38v7.29H97.65V511a9.88,9.88,0,0,1-4.1,1.2c-1.9,0-3.34-1-3.34-2.9v-1c0-1.91,1.36-2.91,3.74-2.91h3.7v-.6c0-1.68-.82-2.32-3.08-2.32H91.05v-1.06ZM97.65,510v-3.46H94c-1.64,0-2.48.64-2.48,1.92v.82a1.86,1.86,0,0,0,2.08,1.92A9.88,9.88,0,0,0,97.65,510Z"/><path d="M108.93,501.44h1.26v10.83c0,2.36-1.32,3.28-4.34,3.28h-3.52l-.2-1.06h3.72c2.26,0,3.08-.64,3.08-2.32v-1.9a17.11,17.11,0,0,1-4.84,1c-1.42,0-2.38-.94-2.38-2.68v-6.07l-.72-.8c-.12-.14-.08-.32.14-.32H103v6.79c0,1.46.28,2,1.22,2a18.35,18.35,0,0,0,4.74-1.08Z"/><path d="M119.09,511.05v1.06h-1.46c-2.46,0-3.54-.68-3.54-3.38V502.5h-2.3v-1.06h2.3v-4.06l1.26-.2v4.26h3.46l.2,1.06h-3.66v6.23c0,1.94.76,2.32,2.28,2.32Z"/><path d="M129.37,504v8.09h-1.26v-7.69c0-1.46-.28-2-1.22-2a18.35,18.35,0,0,0-4.74,1.08v8.63h-1.26v-9.55l-.72-.8c-.12-.14-.08-.32.14-.32h1.84v.94a17.11,17.11,0,0,1,4.84-1C128.41,501.34,129.37,502.28,129.37,504Z"/><path d="M131.57,514.11a15.47,15.47,0,0,0,0-18.31h1.18a15.15,15.15,0,0,1,0,18.31Z"/><path d="M153.23,500.56v1.8c0,2.34-1.48,3.4-4.5,3.4h-3.64v6.35h-1.26V498.3l-.72-.8c-.12-.14-.08-.32.14-.32h5.48C151.75,497.18,153.23,498.22,153.23,500.56Zm-1.26.2c0-1.76-.84-2.52-3.24-2.52h-3.64v6.46h3.64c2.4,0,3.24-.78,3.24-2.54Z"/><path d="M156,512.11V496.38h1.26v15.73Z"/><path d="M164.85,501.44c3.06,0,4.34.94,4.34,3.38v7.29h-1.26V511a9.88,9.88,0,0,1-4.1,1.2c-1.9,0-3.34-1-3.34-2.9v-1c0-1.91,1.36-2.91,3.74-2.91h3.7v-.6c0-1.68-.82-2.32-3.08-2.32h-3.52v-1.06Zm3.08,8.51v-3.46h-3.7c-1.64,0-2.48.64-2.48,1.92v.82a1.86,1.86,0,0,0,2.08,1.92A9.88,9.88,0,0,0,167.93,510Z"/><path d="M177.49,511.05v1.06H176c-2.46,0-3.54-.68-3.54-3.38V502.5h-2.3v-1.06h2.3v-4.06l1.26-.2v4.26h3.46l.2,1.06h-3.66v6.23c0,1.94.76,2.32,2.28,2.32Z"/><path d="M184.31,497.44c-1.52,0-2.28.38-2.28,2.32v1.68h4v1.06h-4v9.61h-1.26V502.5h-2.48l-.2-1.06h2.68v-1.68c0-2.7,1.08-3.38,3.54-3.38h1.74v1.06Z"/><path d="M186.65,508.41v-3.27c0-2.42,1.74-3.9,4.74-3.9s4.74,1.48,4.74,3.9v3.27c0,2.42-1.74,3.9-4.74,3.9S186.65,510.83,186.65,508.41Zm8.22-.08v-3.11c0-1.82-1.16-2.92-3.48-2.92s-3.48,1.1-3.48,2.92v3.11c0,1.82,1.16,2.92,3.48,2.92S194.87,510.15,194.87,508.33Z"/><path d="M205.33,502.5h-2.62c-2,0-2.72.84-2.72,2.72v6.89h-1.26v-7c0-2.56,1.32-3.66,3.9-3.66h2.5Z"/><path d="M220,504v8.09h-1.26v-7.89c0-1.26-.38-1.82-1.22-1.82a13,13,0,0,0-3.48.8,3.46,3.46,0,0,1,.08.82v8.09h-1.26v-7.89c0-1.26-.38-1.82-1.22-1.82a11.69,11.69,0,0,0-3.4.9v8.81h-1.26v-9.55l-.72-.8c-.12-.14-.08-.32.14-.32h1.84v.76a11.85,11.85,0,0,1,3.5-.86,2.22,2.22,0,0,1,1.88.88,15,15,0,0,1,4-.88C219,501.34,220,502.28,220,504Z"/><path d="M237.87,512.13h-1.38l-3.36-6.57H229v6.55h-1.26V498.3l-.72-.8c-.12-.14-.08-.32.14-.32h5.48c3,0,4.5,1,4.5,3.38v1.6a3,3,0,0,1-2.7,3.24ZM229,504.5h3.64c2.4,0,3.24-.78,3.24-2.54v-1.2c0-1.76-.84-2.52-3.24-2.52H229Z"/><path d="M239,508.41v-3.27c0-2.42,1.74-3.9,4.74-3.9s4.74,1.48,4.74,3.9v3.27c0,2.42-1.74,3.9-4.74,3.9S239,510.83,239,508.41Zm8.22-.08v-3.11c0-1.82-1.16-2.92-3.48-2.92s-3.48,1.1-3.48,2.92v3.11c0,1.82,1.16,2.92,3.48,2.92S247.17,510.15,247.17,508.33Z"/><path d="M251.63,512.11V496.38h1.26v15.73Z"/><path d="M256.89,512.11V496.38h1.26v15.73Z"/><path d="M261.35,503.8h6.4v1.06h-6.4Z"/><path d="M270.15,508.41v-3.27c0-2.42,1.74-3.9,4.74-3.9s4.74,1.48,4.74,3.9v3.27c0,2.42-1.74,3.9-4.74,3.9S270.15,510.83,270.15,508.41Zm8.22-.08v-3.11c0-1.82-1.16-2.92-3.48-2.92s-3.48,1.1-3.48,2.92v3.11c0,1.82,1.16,2.92,3.48,2.92S278.37,510.15,278.37,508.33Z"/><path d="M289.45,501.44h1.26v10.67h-1.26v-.94a17.11,17.11,0,0,1-4.84,1c-1.42,0-2.38-.94-2.38-2.68v-7l-.72-.8c-.12-.14-.08-.32.14-.32h1.84v7.69c0,1.46.28,2,1.22,2a18.52,18.52,0,0,0,4.74-1.08Z"/><path d="M299.61,511.05v1.06h-1.46c-2.46,0-3.54-.68-3.54-3.38V502.5h-2.3v-1.06h2.3v-4.06l1.26-.2v4.26h3.46l.2,1.06h-3.66v6.23c0,1.94.76,2.32,2.28,2.32Z"/></g><g class="cls-9"><path d="M120.26,534.33v1.16c0,2.56-1.9,3.62-4.62,3.62h-4a.6.6,0,0,1-.44-.16l-.4-.36a.72.72,0,0,1-.22-.5V525.3l-.72-.8c-.12-.14-.08-.32.14-.32h5.68c2.88,0,4.42,1.22,4.42,3.34v.9a2.84,2.84,0,0,1-1.92,2.78A3.17,3.17,0,0,1,120.26,534.33Zm-8.46-9.09v5.46H116c1.46,0,2.76-.58,2.76-2.34v-.64c0-1.4-.72-2.48-3.16-2.48Zm7.2,9.29c0-1.55-.78-2.77-3-2.77H111.8v6.29h3.84c2,0,3.36-.7,3.36-2.63Z"/><path d="M131.76,536.89a5,5,0,0,1-4.76,2.32c-3,0-4.74-1.48-4.74-3.9v-3.07c0-2.42,1.74-3.9,4.74-3.9s4.74,1.48,4.74,3.9v2.09h-8.22v.9c0,1.82,1.16,2.92,3.48,2.92a4.2,4.2,0,0,0,3.76-1.9Zm-8.24-4.57v.94h7v-.94c0-1.82-1.16-2.92-3.48-2.92S123.52,530.5,123.52,532.32Z"/><path d="M140.06,538.05v1.06H138.6c-2.46,0-3.54-.68-3.54-3.38V529.5h-2.3v-1.06h2.3v-4.06l1.26-.2v4.26h3.46l.2,1.06h-3.66v6.23c0,1.94.76,2.32,2.28,2.32Z"/><path d="M145.62,528.44c3.06,0,4.34.94,4.34,3.38v7.29H148.7V538a9.88,9.88,0,0,1-4.1,1.2c-1.9,0-3.34-1-3.34-2.9v-1c0-1.91,1.36-2.91,3.74-2.91h3.7v-.6c0-1.68-.82-2.32-3.08-2.32H142.1v-1.06ZM148.7,537v-3.46H145c-1.64,0-2.48.64-2.48,1.92v.82a1.86,1.86,0,0,0,2.08,1.92A9.88,9.88,0,0,0,148.7,537Z"/><path d="M163.86,538.05v1.06H162.4c-2.46,0-3.54-.68-3.54-3.38V529.5h-2.3v-1.06h2.3v-4.06l1.26-.2v4.26h3.46l.2,1.06h-3.66v6.23c0,1.94.76,2.32,2.28,2.32Z"/><path d="M174.56,536.89a5,5,0,0,1-4.76,2.32c-3,0-4.74-1.48-4.74-3.9v-3.07c0-2.42,1.74-3.9,4.74-3.9s4.74,1.48,4.74,3.9v2.09h-8.22v.9c0,1.82,1.16,2.92,3.48,2.92a4.2,4.2,0,0,0,3.76-1.9Zm-8.24-4.57v.94h7v-.94c0-1.82-1.16-2.92-3.48-2.92S166.32,530.5,166.32,532.32Z"/><path d="M180,539.11h-3.66v-1.06H180c1.86,0,2.78-.62,2.78-1.68s-.4-1.57-2.84-2.2c-2.64-.68-3.6-1.46-3.6-3.11s1.36-2.62,4.1-2.62h2.78l.2,1.06h-3c-1.92,0-2.84.62-2.84,1.56s.58,1.54,2.92,2.12c2.66.7,3.52,1.39,3.52,3.19S182.6,539.11,180,539.11Z"/><path d="M191.76,538.05v1.06H190.3c-2.46,0-3.54-.68-3.54-3.38V529.5h-2.3v-1.06h2.3v-4.06l1.26-.2v4.26h3.46l.2,1.06H188v6.23c0,1.94.76,2.32,2.28,2.32Z"/><path d="M194,526v-1.66h1.66V526Zm.2,13.07V528.44h1.26v10.67Z"/><path d="M207.38,531v8.09h-1.26v-7.69c0-1.46-.28-2-1.22-2a18.35,18.35,0,0,0-4.74,1.08v8.63H198.9v-9.55l-.72-.8c-.12-.14-.08-.32.14-.32h1.84v.94a17.11,17.11,0,0,1,4.84-1C206.42,528.34,207.38,529.28,207.38,531Z"/><path d="M217.2,528.44h1.26v10.83c0,2.36-1.32,3.28-4.34,3.28H210.8l-.2-1.06h3.52c2.26,0,3.08-.64,3.08-2.32v-1.5a19.74,19.74,0,0,1-4,.64c-1.9,0-3.18-.94-3.18-2.68V531c0-1.74,1.28-2.68,3.18-2.68a14.53,14.53,0,0,1,4,.84Zm0,8.13v-6.29a15.45,15.45,0,0,0-3.94-.88c-1.56,0-2,.56-2,2v3.81c0,1.46.46,2,2,2A21,21,0,0,0,217.2,536.57Z"/></g><g class="cls-9"><path class="cls-10" d="M119,629l-4.91-.75c.53-4.46,2.62-6.38,7.3-6.38s7.06,2,7.06,5.75c0,3.17-1.49,5.44-3.71,7.81l-3.55,3.8h7.13v4.66H114.5V639.5l5.22-5.79c2.09-2.34,3.17-3.68,3.17-5.32,0-1.31-.55-1.81-1.76-1.81S119.29,627.59,119,629Z"/><path class="cls-10" d="M130.72,628.39c0-4.76,3.1-6.5,7.26-6.5s7.25,1.74,7.25,6.5v9.4c0,4.76-3.1,6.5-7.25,6.5s-7.26-1.74-7.26-6.5Zm5.54,8.47c0,1.91.78,2.77,1.72,2.77s1.71-.86,1.71-2.77v-7.54c0-1.91-.78-2.77-1.71-2.77s-1.72.86-1.72,2.77Z"/><path class="cls-10" d="M152.41,629l-4.91-.75c.52-4.46,2.62-6.38,7.3-6.38s7.06,2,7.06,5.75c0,3.17-1.49,5.44-3.71,7.81l-3.55,3.8h7.13v4.66H147.9V639.5l5.21-5.79c2.09-2.34,3.18-3.68,3.18-5.32,0-1.31-.56-1.81-1.77-1.81S152.69,627.59,152.41,629Z"/><path class="cls-10" d="M168.4,622.27h5.29v21.64h-5.54V628.57l-3.4,1.84-2.65-4.59Z"/><path class="cls-10" d="M187.42,629l-4.92-.75c.53-4.46,2.63-6.38,7.31-6.38s7.05,2,7.05,5.75c0,3.17-1.48,5.44-3.7,7.81l-3.55,3.8h7.13v4.66H182.91V639.5l5.21-5.79c2.09-2.34,3.18-3.68,3.18-5.32,0-1.31-.56-1.81-1.77-1.81S187.69,627.59,187.42,629Z"/><path class="cls-10" d="M215.58,646.13h-5.8L209,644a6.07,6.07,0,0,1-1.81.25c-4.36,0-7.76-1.74-7.76-5.49V627.38c0-3.75,3.4-5.49,8-5.49s8,1.74,8,5.49V638.8a4.69,4.69,0,0,1-1.61,3.67Zm-10.66-8.52c0,1.34,1.14,2,2.47,2s2.47-.68,2.47-2v-9c0-1.34-1.13-2-2.47-2s-2.47.68-2.47,2Z"/></g><g class="cls-9"><path class="cls-10" d="M118.6,780.26l-4.92-.76c.53-4.46,2.62-6.37,7.31-6.37s7,2,7,5.74c0,3.18-1.48,5.45-3.7,7.81l-3.55,3.81h7.13v4.66H114.09v-4.41L119.3,785c2.09-2.35,3.17-3.68,3.17-5.32,0-1.31-.55-1.81-1.76-1.81S118.87,778.82,118.6,780.26Z"/><path class="cls-10" d="M130.31,779.63c0-4.76,3.09-6.5,7.25-6.5s7.26,1.74,7.26,6.5V789c0,4.76-3.1,6.5-7.26,6.5s-7.25-1.74-7.25-6.5Zm5.54,8.46c0,1.92.78,2.78,1.71,2.78s1.71-.86,1.71-2.78v-7.53c0-1.91-.78-2.77-1.71-2.77s-1.71.86-1.71,2.77Z"/><path class="cls-10" d="M152,780.26l-4.91-.76c.53-4.46,2.62-6.37,7.31-6.37s7.05,2,7.05,5.74c0,3.18-1.49,5.45-3.7,7.81l-3.56,3.81h7.13v4.66H147.48v-4.41L152.7,785c2.09-2.35,3.17-3.68,3.17-5.32,0-1.31-.55-1.81-1.76-1.81S152.27,778.82,152,780.26Z"/><path class="cls-10" d="M168,773.51h5.29v21.64h-5.55V779.81l-3.4,1.83-2.64-4.58Z"/><path class="cls-10" d="M196.75,778.42v1.08a4.57,4.57,0,0,1-2.19,4.36A4.61,4.61,0,0,1,197,788.3v1.43c0,3.53-2.24,5.8-7.51,5.8-4.84,0-6.93-1.92-7.43-6.38l5-.75c.33,1.46.93,2.47,2.39,2.47a1.77,1.77,0,0,0,1.94-1.87v-1.06c0-1-.63-1.56-1.84-1.56h-3.1v-4.66h3.1c1.21,0,1.59-.55,1.59-1.71v-.63a1.42,1.42,0,0,0-1.56-1.59,2.19,2.19,0,0,0-2.27,2l-5-.76c.51-4.11,2.55-5.87,7.31-5.87C194.21,773.13,196.75,774.89,196.75,778.42Z"/><path class="cls-10" d="M216,797.37H210.2l-.83-2.1a6.06,6.06,0,0,1-1.82.26c-4.35,0-7.75-1.74-7.75-5.5V778.62c0-3.75,3.4-5.49,8-5.49s8,1.74,8,5.49V790a4.73,4.73,0,0,1-1.61,3.68Zm-10.65-8.52c0,1.33,1.13,2,2.47,2s2.47-.69,2.47-2v-9c0-1.34-1.14-2-2.47-2s-2.47.68-2.47,2Z"/></g><g class="cls-9"><path class="cls-10" d="M118.92,923.41l-4.91-.76c.53-4.46,2.62-6.37,7.31-6.37s7.05,2,7.05,5.74c0,3.17-1.49,5.44-3.7,7.81l-3.56,3.8h7.13v4.66H114.41v-4.4l5.22-5.8c2.09-2.34,3.17-3.68,3.17-5.31,0-1.31-.55-1.82-1.76-1.82S119.2,922,118.92,923.41Z"/><path class="cls-10" d="M130.63,922.78c0-4.77,3.1-6.5,7.26-6.5s7.25,1.73,7.25,6.5v9.39c0,4.76-3.1,6.5-7.25,6.5s-7.26-1.74-7.26-6.5Zm5.54,8.46c0,1.92.79,2.77,1.72,2.77s1.71-.85,1.71-2.77v-7.53c0-1.92-.78-2.77-1.71-2.77s-1.72.85-1.72,2.77Z"/><path class="cls-10" d="M152.32,923.41l-4.91-.76c.53-4.46,2.62-6.37,7.3-6.37s7.06,2,7.06,5.74c0,3.17-1.49,5.44-3.71,7.81l-3.55,3.8h7.13v4.66H147.81v-4.4l5.21-5.8c2.1-2.34,3.18-3.68,3.18-5.31,0-1.31-.55-1.82-1.76-1.82S152.6,922,152.32,923.41Z"/><path class="cls-10" d="M168.31,916.65h5.29v21.64h-5.54V923l-3.4,1.84L162,920.21Z"/><path class="cls-10" d="M193.68,916.65l-5.77,13.68h2.74v-4.78l5-3.23v8h2V935h-2v3.3h-5V935h-8.51v-4.66L188,916.65Z"/><path class="cls-10" d="M215.67,940.51h-5.8l-.83-2.09a6.07,6.07,0,0,1-1.81.25c-4.36,0-7.76-1.74-7.76-5.49V921.77c0-3.76,3.4-5.49,8-5.49s8,1.73,8,5.49v11.41a4.71,4.71,0,0,1-1.61,3.68ZM205,932c0,1.33,1.13,2,2.47,2s2.47-.68,2.47-2v-9c0-1.33-1.14-2-2.47-2s-2.47.68-2.47,2Z"/></g><g class="cls-9"><path d="M26,666.17,32.6,674H31l-6.12-7.35V674H23.58V660.23l-.72-.8c-.12-.14-.08-.32.14-.32h1.84v6.52l5.9-6.52h1.68Z"/><path d="M35.66,674H34.4V660.23l-.72-.8c-.12-.14-.08-.32.14-.32h1.84Z"/><path d="M48.46,662.49v1.8c0,2.34-1.48,3.4-4.5,3.4H40.32V674H39.06V660.23l-.72-.8c-.12-.14-.08-.32.14-.32H44C47,659.11,48.46,660.15,48.46,662.49Zm-1.26.2c0-1.76-.84-2.52-3.24-2.52H40.32v6.46H44c2.4,0,3.24-.78,3.24-2.54Z"/><path d="M50.06,659.11h9v1L54.5,674H53.24l4.52-13.87H51.32v3.56H50.06Z"/><path d="M64.54,676a15.15,15.15,0,0,1,0-18.31h1.18a16.25,16.25,0,0,0-3,9.14,16.42,16.42,0,0,0,3,9.17Z"/><path d="M70.32,666.17,76.94,674H75.3l-6.12-7.35V674H67.92V660.23l-.72-.8c-.12-.14-.08-.32.14-.32h1.84v6.52l5.9-6.52h1.68Z"/><path d="M78.94,674V658.31H80.2V674Z"/><path d="M87.76,663.37c3.06,0,4.34.94,4.34,3.38V674H90.84v-1.11a9.88,9.88,0,0,1-4.1,1.2c-1.9,0-3.34-1-3.34-2.9v-1c0-1.9,1.36-2.9,3.74-2.9h3.7v-.6c0-1.68-.82-2.32-3.08-2.32H84.24v-1.06Zm3.08,8.5v-3.46h-3.7c-1.64,0-2.48.64-2.48,1.92v.82a1.86,1.86,0,0,0,2.08,1.92A9.88,9.88,0,0,0,90.84,671.87Z"/><path d="M102.12,663.37h1.26V674.2c0,2.36-1.32,3.28-4.34,3.28H95.52l-.2-1.06H99c2.26,0,3.08-.64,3.08-2.33v-1.9a17.11,17.11,0,0,1-4.84,1c-1.42,0-2.38-.94-2.38-2.68v-6.06l-.72-.8c-.12-.14-.08-.32.14-.32h1.84v6.78c0,1.46.28,2,1.22,2a18.35,18.35,0,0,0,4.74-1.08Z"/><path d="M112.28,673V674h-1.46c-2.46,0-3.54-.69-3.54-3.39v-6.22H105v-1.06h2.3v-4.06l1.26-.2v4.26H112l.2,1.06h-3.66v6.22c0,1.94.76,2.32,2.28,2.32Z"/><path d="M122.56,666V674H121.3v-7.69c0-1.46-.28-2-1.22-2a18.35,18.35,0,0,0-4.74,1.08V674h-1.26v-9.55l-.72-.8c-.12-.14-.08-.32.14-.32h1.84v.94a17.11,17.11,0,0,1,4.84-1C121.6,663.27,122.56,664.21,122.56,666Z"/><path d="M124.76,676a16.42,16.42,0,0,0,3-9.17,16.25,16.25,0,0,0-3-9.14h1.18a15.15,15.15,0,0,1,0,18.31Z"/><path d="M146.42,662.49v1.8c0,2.34-1.48,3.4-4.5,3.4h-3.64V674H137V660.23l-.72-.8c-.12-.14-.08-.32.14-.32h5.48C144.94,659.11,146.42,660.15,146.42,662.49Zm-1.26.2c0-1.76-.84-2.52-3.24-2.52h-3.64v6.46h3.64c2.4,0,3.24-.78,3.24-2.54Z"/><path d="M149.22,674V658.31h1.26V674Z"/><path d="M158,663.37c3.06,0,4.34.94,4.34,3.38V674h-1.26v-1.11a9.88,9.88,0,0,1-4.1,1.2c-1.9,0-3.34-1-3.34-2.9v-1c0-1.9,1.36-2.9,3.74-2.9h3.7v-.6c0-1.68-.82-2.32-3.08-2.32h-3.52v-1.06Zm3.08,8.5v-3.46h-3.7c-1.64,0-2.48.64-2.48,1.92v.82a1.86,1.86,0,0,0,2.08,1.92A9.88,9.88,0,0,0,161.12,671.87Z"/><path d="M170.68,673V674h-1.46c-2.46,0-3.54-.69-3.54-3.39v-6.22h-2.3v-1.06h2.3v-4.06l1.26-.2v4.26h3.46l.2,1.06h-3.66v6.22c0,1.94.76,2.32,2.28,2.32Z"/><path d="M177.5,659.37c-1.52,0-2.28.38-2.28,2.32v1.68h4v1.06h-4V674H174v-9.61h-2.48l-.2-1.06H174v-1.68c0-2.7,1.08-3.38,3.54-3.38h1.74v1.06Z"/><path d="M179.84,670.33v-3.26c0-2.42,1.74-3.9,4.74-3.9s4.74,1.48,4.74,3.9v3.26c0,2.42-1.74,3.9-4.74,3.9S179.84,672.75,179.84,670.33Zm8.22-.08v-3.1c0-1.82-1.16-2.92-3.48-2.92s-3.48,1.1-3.48,2.92v3.1c0,1.82,1.16,2.92,3.48,2.92S188.06,672.07,188.06,670.25Z"/><path d="M198.52,664.43H195.9c-2,0-2.72.84-2.72,2.72V674h-1.26v-7c0-2.56,1.32-3.66,3.9-3.66h2.5Z"/><path d="M213.14,666V674h-1.26v-7.89c0-1.26-.38-1.82-1.22-1.82a13,13,0,0,0-3.48.8,3.46,3.46,0,0,1,.08.82V674H206v-7.89c0-1.26-.38-1.82-1.22-1.82a11.69,11.69,0,0,0-3.4.9V674h-1.26v-9.55l-.72-.8c-.12-.14-.08-.32.14-.32h1.84v.76a11.85,11.85,0,0,1,3.5-.86,2.22,2.22,0,0,1,1.88.88,15,15,0,0,1,4-.88C212.16,663.27,213.14,664.21,213.14,666Z"/><path d="M231.9,659.11H234V674h-1.26V660.11l-4.58,10.76h-1.4l-4.58-10.76V674h-1.26V660.23l-.72-.8c-.12-.14-.08-.32.14-.32h2.7l4.42,10.62Z"/><path d="M241,663.37c3.06,0,4.34.94,4.34,3.38V674h-1.26v-1.11a9.88,9.88,0,0,1-4.1,1.2c-1.9,0-3.34-1-3.34-2.9v-1c0-1.9,1.36-2.9,3.74-2.9h3.7v-.6c0-1.68-.82-2.32-3.08-2.32h-3.52v-1.06Zm3.08,8.5v-3.46h-3.7c-1.64,0-2.48.64-2.48,1.92v.82a1.86,1.86,0,0,0,2.08,1.92A9.88,9.88,0,0,0,244.06,671.87Z"/><path d="M248.56,661v-1.66h1.66V661Zm.2,13.07V663.37H250V674Z"/><path d="M261.94,666V674h-1.26v-7.69c0-1.46-.28-2-1.22-2a18.35,18.35,0,0,0-4.74,1.08V674h-1.26v-9.55l-.72-.8c-.12-.14-.08-.32.14-.32h1.84v.94a17.11,17.11,0,0,1,4.84-1C261,663.27,261.94,664.21,261.94,666Z"/><path d="M264.54,665.73h6.4v1.06h-6.4Z"/><path d="M282,666V674h-1.26v-7.69c0-1.46-.28-2-1.22-2a18.35,18.35,0,0,0-4.74,1.08V674h-1.26v-9.55l-.72-.8c-.12-.14-.08-.32.14-.32h1.84v.94a17.11,17.11,0,0,1,4.84-1C281.06,663.27,282,664.21,282,666Z"/><path d="M294.12,671.81a5,5,0,0,1-4.76,2.32c-3,0-4.74-1.48-4.74-3.9v-3.06c0-2.42,1.74-3.9,4.74-3.9s4.74,1.48,4.74,3.9v2.08h-8.22v.9c0,1.82,1.16,2.92,3.48,2.92a4.2,4.2,0,0,0,3.76-1.9Zm-8.24-4.56v.94h7v-.94c0-1.82-1.16-2.92-3.48-2.92S285.88,665.43,285.88,667.25Z"/><path d="M302.42,673V674H301c-2.46,0-3.54-.69-3.54-3.39v-6.22h-2.3v-1.06h2.3v-4.06l1.26-.2v4.26h3.46l.2,1.06h-3.66v6.22c0,1.94.76,2.32,2.28,2.32Z"/><path d="M31.83,697h6.74V698H31.63a.6.6,0,0,1-.44-.16l-.4-.37a.7.7,0,0,1-.22-.5V684.23l-.72-.8c-.12-.14-.08-.32.14-.32h1.84Z"/><path d="M43.93,687.37c3.06,0,4.34.94,4.34,3.38V698H47v-1.11a9.88,9.88,0,0,1-4.1,1.2c-1.9,0-3.34-1-3.34-2.9v-1c0-1.9,1.36-2.9,3.74-2.9H47v-.6c0-1.68-.82-2.32-3.08-2.32H40.41v-1.06Zm3.08,8.5v-3.46h-3.7c-1.64,0-2.48.64-2.48,1.92v.82a1.86,1.86,0,0,0,2.08,1.92A9.88,9.88,0,0,0,47,695.87Z"/><path d="M58.29,687.37h1.26V698H58.29v-.95a17.11,17.11,0,0,1-4.84,1c-1.42,0-2.38-.94-2.38-2.68v-7l-.72-.8c-.12-.14-.08-.32.14-.32h1.84v7.68c0,1.46.28,2,1.22,2A18.52,18.52,0,0,0,58.29,696Z"/><path d="M70.83,690V698H69.57v-7.69c0-1.46-.28-2-1.22-2a18.35,18.35,0,0,0-4.74,1.08V698H62.35v-9.55l-.72-.8c-.12-.14-.08-.32.14-.32h1.84v.94a17.11,17.11,0,0,1,4.84-1C69.87,687.27,70.83,688.21,70.83,690Z"/><path d="M81.93,694.77l1,.64a5,5,0,0,1-4.86,2.72c-2.94,0-4.64-1.48-4.64-3.9v-3.06c0-2.42,1.7-3.9,4.64-3.9a4.8,4.8,0,0,1,4.66,2.52l-1,.64a3.94,3.94,0,0,0-3.66-2.1c-2.26,0-3.38,1.1-3.38,2.92v2.9c0,1.82,1.12,2.92,3.38,2.92A4.12,4.12,0,0,0,81.93,694.77Z"/><path d="M93.41,690V698H92.15v-7.69c0-1.46-.28-2-1.22-2a23.32,23.32,0,0,0-4.74.88V698H84.93V683.43l-.72-.8c-.12-.14-.08-.32.14-.32h1.84v5.8a21.72,21.72,0,0,1,4.84-.84C92.43,687.27,93.41,688.21,93.41,690Z"/><path d="M96.45,685v-1.66h1.66V685Zm.2,13.07V687.37h1.26V698Z"/><path d="M109.83,690V698h-1.26v-7.69c0-1.46-.28-2-1.22-2a18.35,18.35,0,0,0-4.74,1.08V698h-1.26v-9.55l-.72-.8c-.12-.14-.08-.32.14-.32h1.84v.94a17.11,17.11,0,0,1,4.84-1C108.87,687.27,109.83,688.21,109.83,690Z"/><path d="M119.65,687.37h1.26V698.2c0,2.36-1.32,3.28-4.34,3.28h-3.32l-.2-1.06h3.52c2.26,0,3.08-.64,3.08-2.33v-1.5a19.74,19.74,0,0,1-4,.64c-1.9,0-3.18-.94-3.18-2.68V690c0-1.74,1.28-2.68,3.18-2.68a14.53,14.53,0,0,1,4,.84Zm0,8.12v-6.28a15.45,15.45,0,0,0-3.94-.88c-1.56,0-2,.56-2,2v3.8c0,1.46.46,2,2,2A21,21,0,0,0,119.65,695.49Z"/><path d="M128.31,698l5.54-14.93h1.24L129.57,698Z"/><path d="M151.71,698,150,692.73h-5.56L142.67,698h-1.28l4.54-13.83-.7-.78c-.12-.14-.08-.32.14-.32h2.72L153,698Zm-7-6.37h4.88l-2.44-7.44Z"/><path d="M163.17,690v5.1c0,1.74-1.28,2.68-3.18,2.68a19.05,19.05,0,0,1-4-.64v4.59h-1.26V688.49l-.72-.8c-.12-.14-.08-.32.14-.32H156v.74a14.53,14.53,0,0,1,4-.84C161.89,687.27,163.17,688.21,163.17,690Zm-1.26.4c0-1.46-.46-2-2-2a15.45,15.45,0,0,0-3.94.88V696a21,21,0,0,0,3.94.68c1.56,0,2-.56,2-2Z"/><path d="M174.25,690v5.1c0,1.74-1.28,2.68-3.18,2.68a19.05,19.05,0,0,1-4-.64v4.59h-1.26V688.49l-.72-.8c-.12-.14-.08-.32.14-.32H167v.74a14.53,14.53,0,0,1,4-.84C173,687.27,174.25,688.21,174.25,690Zm-1.26.4c0-1.46-.46-2-2-2a15.45,15.45,0,0,0-3.94.88V696a21,21,0,0,0,3.94.68c1.56,0,2-.56,2-2Z"/><path d="M191.53,687.61v5.92c0,3-1.8,4.51-5.18,4.51h-3.44a.6.6,0,0,1-.44-.16l-.4-.37a.7.7,0,0,1-.22-.5V684.23l-.72-.8c-.12-.14-.08-.32.14-.32h5.08C189.73,683.11,191.53,684.45,191.53,687.61Zm-1.26.08c0-2.4-1.26-3.52-3.92-3.52h-3.24V697h3.24c2.66,0,3.92-1.12,3.92-3.52Z"/><path d="M203.43,695.81a5,5,0,0,1-4.76,2.32c-3,0-4.74-1.48-4.74-3.9v-3.06c0-2.42,1.74-3.9,4.74-3.9s4.74,1.48,4.74,3.9v2.08h-8.22v.9c0,1.82,1.16,2.92,3.48,2.92a4.2,4.2,0,0,0,3.76-1.9Zm-8.24-4.56v.94h7v-.94c0-1.82-1.16-2.92-3.48-2.92S195.19,689.43,195.19,691.25Z"/><path d="M213,687.37h1.28L210.23,698h-1.76l-3.66-9.55-.72-.8c-.12-.14-.08-.32.14-.32h1.44l3.68,9.72Z"/><path d="M224.91,695.81a5,5,0,0,1-4.76,2.32c-3,0-4.74-1.48-4.74-3.9v-3.06c0-2.42,1.74-3.9,4.74-3.9s4.74,1.48,4.74,3.9v2.08h-8.22v.9c0,1.82,1.16,2.92,3.48,2.92a4.2,4.2,0,0,0,3.76-1.9Zm-8.24-4.56v.94h7v-.94c0-1.82-1.16-2.92-3.48-2.92S216.67,689.43,216.67,691.25Z"/><path d="M227.91,698V682.31h1.26V698Z"/><path d="M232.37,694.33v-3.26c0-2.42,1.74-3.9,4.74-3.9s4.74,1.48,4.74,3.9v3.26c0,2.42-1.74,3.9-4.74,3.9S232.37,696.75,232.37,694.33Zm8.22-.08v-3.1c0-1.82-1.16-2.92-3.48-2.92s-3.48,1.1-3.48,2.92v3.1c0,1.82,1.16,2.92,3.48,2.92S240.59,696.07,240.59,694.25Z"/><path d="M252.93,690v5.1c0,1.74-1.28,2.68-3.18,2.68a19.05,19.05,0,0,1-4-.64v4.59h-1.26V688.49l-.72-.8c-.12-.14-.08-.32.14-.32h1.84v.74a14.53,14.53,0,0,1,4-.84C251.65,687.27,252.93,688.21,252.93,690Zm-1.26.4c0-1.46-.46-2-2-2a15.45,15.45,0,0,0-3.94.88V696a21,21,0,0,0,3.94.68c1.56,0,2-.56,2-2Z"/><path d="M268.55,690V698h-1.26v-7.89c0-1.26-.38-1.82-1.22-1.82a13,13,0,0,0-3.48.8,3.46,3.46,0,0,1,.08.82V698h-1.26v-7.89c0-1.26-.38-1.82-1.22-1.82a11.69,11.69,0,0,0-3.4.9V698h-1.26v-9.55l-.72-.8c-.12-.14-.08-.32.14-.32h1.84v.76a11.85,11.85,0,0,1,3.5-.86,2.22,2.22,0,0,1,1.88.88,15,15,0,0,1,4-.88C267.57,687.27,268.55,688.21,268.55,690Z"/><path d="M280.65,695.81a5,5,0,0,1-4.76,2.32c-3,0-4.74-1.48-4.74-3.9v-3.06c0-2.42,1.74-3.9,4.74-3.9s4.74,1.48,4.74,3.9v2.08h-8.22v.9c0,1.82,1.16,2.92,3.48,2.92a4.2,4.2,0,0,0,3.76-1.9Zm-8.24-4.56v.94h7v-.94c0-1.82-1.16-2.92-3.48-2.92S272.41,689.43,272.41,691.25Z"/><path d="M291.53,690V698h-1.26v-7.69c0-1.46-.28-2-1.22-2a18.35,18.35,0,0,0-4.74,1.08V698h-1.26v-9.55l-.72-.8c-.12-.14-.08-.32.14-.32h1.84v.94a17.11,17.11,0,0,1,4.84-1C290.57,687.27,291.53,688.21,291.53,690Z"/><path d="M300.43,697V698H299c-2.46,0-3.54-.69-3.54-3.39v-6.22h-2.3v-1.06h2.3v-4.06l1.26-.2v4.26h3.46l.2,1.06h-3.66v6.22c0,1.94.76,2.32,2.28,2.32Z"/></g><g class="cls-9"><path d="M63.46,824.2h7.6v1.12H63.25a.68.68,0,0,1-.47-.17l-.42-.38a.79.79,0,0,1-.23-.52V810.83l-.75-.84c-.13-.15-.09-.34.14-.34h9.33v1.12H63.46v5.73H70.4v1.11H63.46Z"/><path d="M81.85,816.83v8.49H80.53v-8.07c0-1.53-.3-2.12-1.28-2.12s-2.27.34-5,1.14v9.05H73v-10l-.76-.84c-.12-.15-.08-.33.15-.33h1.93v1A18.17,18.17,0,0,1,79.35,814C80.84,814,81.85,815,81.85,816.83Z"/><path d="M91.19,824.2v1.12H89.66c-2.58,0-3.71-.72-3.71-3.55v-6.53H83.53v-1.11H86v-4.27l1.32-.21v4.48H90.9l.21,1.11H87.27v6.53c0,2,.8,2.43,2.39,2.43Z"/><path d="M102.43,823a5.31,5.31,0,0,1-5,2.43c-3.15,0-5-1.55-5-4.09v-3.21c0-2.55,1.82-4.1,5-4.1s5,1.55,5,4.1v2.18H93.78v.94c0,1.91,1.22,3.07,3.65,3.07a4.4,4.4,0,0,0,3.95-2Zm-8.65-4.79v1h7.31v-1c0-1.91-1.22-3.07-3.66-3.07S93.78,816.29,93.78,818.2Z"/><path d="M111.88,815.24h-2.75c-2.08,0-2.86.88-2.86,2.85v7.23H105V818c0-2.69,1.39-3.84,4.1-3.84h2.62Z"/><path d="M113.6,811.61v-1.75h1.75v1.75Zm.21,13.71V814.13h1.33v11.19Z"/><path d="M127.65,816.83v8.49h-1.32v-8.07c0-1.53-.3-2.12-1.28-2.12s-2.27.34-5,1.14v9.05h-1.32v-10l-.76-.84c-.12-.15-.08-.33.15-.33h1.93v1a18.17,18.17,0,0,1,5.08-1.09C126.64,814,127.65,815,127.65,816.83Z"/><path d="M138,814.13h1.32v11.35c0,2.48-1.38,3.45-4.55,3.45h-3.49l-.21-1.12h3.7c2.37,0,3.23-.67,3.23-2.43V823.8a20.3,20.3,0,0,1-4.24.68c-2,0-3.34-1-3.34-2.82v-4.83c0-1.82,1.35-2.81,3.34-2.81a15.21,15.21,0,0,1,4.24.88Zm0,8.52v-6.59a16.41,16.41,0,0,0-4.13-.93c-1.64,0-2.13.59-2.13,2.12v4c0,1.54.49,2.12,2.13,2.12A22.22,22.22,0,0,0,138,822.65Z"/><path d="M157.15,825.32l-1.82-5.57h-5.84l-1.83,5.57h-1.34l4.77-14.51-.74-.82c-.12-.15-.08-.34.15-.34h2.85l5.15,15.67Zm-7.3-6.68H155l-2.56-7.81Z"/><path d="M163.71,825.32h-3.84V824.2h3.84c1.95,0,2.92-.65,2.92-1.76,0-1.26-.42-1.64-3-2.31-2.77-.71-3.77-1.53-3.77-3.25s1.42-2.75,4.3-2.75h2.92l.21,1.11h-3.13c-2,0-3,.65-3,1.64s.61,1.61,3.06,2.22c2.8.74,3.7,1.45,3.7,3.34S166.42,825.32,163.71,825.32Z"/><path d="M170.51,811.61v-1.75h1.74v1.75Zm.21,13.71V814.13H172v11.19Z"/><path d="M179.81,814.13c3.22,0,4.56,1,4.56,3.54v7.65h-1.32v-1.16a10.39,10.39,0,0,1-4.31,1.26c-2,0-3.5-1-3.5-3v-1c0-2,1.43-3.05,3.92-3.05h3.89v-.63c0-1.76-.86-2.43-3.24-2.43h-3.69v-1.11Zm3.24,8.92v-3.63h-3.89c-1.72,0-2.6.67-2.6,2v.86a2,2,0,0,0,2.18,2A10.39,10.39,0,0,0,183.05,823.05Z"/><path d="M196.21,816.83v8.49h-1.32v-8.07c0-1.53-.29-2.12-1.28-2.12s-2.27.34-5,1.14v9.05h-1.32v-10l-.75-.84c-.13-.15-.09-.33.14-.33h1.93v1a18.29,18.29,0,0,1,5.09-1.09C195.21,814,196.21,815,196.21,816.83Z"/><path d="M215.91,809.65h2.23v15.67h-1.33V810.7L212,822h-1.47l-4.81-11.3v14.62h-1.32V810.83l-.76-.84c-.13-.15-.08-.34.15-.34h2.83l4.64,11.15Z"/><path d="M225.45,814.13c3.21,0,4.55,1,4.55,3.54v7.65h-1.32v-1.16a10.39,10.39,0,0,1-4.3,1.26c-2,0-3.51-1-3.51-3v-1c0-2,1.43-3.05,3.93-3.05h3.88v-.63c0-1.76-.86-2.43-3.23-2.43h-3.7v-1.11Zm3.23,8.92v-3.63H224.8c-1.73,0-2.61.67-2.61,2v.86a2,2,0,0,0,2.19,2A10.39,10.39,0,0,0,228.68,823.05Z"/><path d="M239.87,815.24h-2.75c-2.08,0-2.85.88-2.85,2.85v7.23h-1.33V818c0-2.69,1.39-3.84,4.1-3.84h2.62Z"/><path d="M249.6,825.32h-1.73l-5.41-5.88v5.88h-1.33V810l-.75-.84c-.13-.15-.09-.34.15-.34h1.93v10.08l4.93-4.74h1.83l-5.31,5Z"/><path d="M260.2,823a5.31,5.31,0,0,1-5,2.43c-3.15,0-5-1.55-5-4.09v-3.21c0-2.55,1.82-4.1,5-4.1s5,1.55,5,4.1v2.18h-8.63v.94c0,1.91,1.22,3.07,3.65,3.07a4.4,4.4,0,0,0,3.95-2Zm-8.65-4.79v1h7.31v-1c0-1.91-1.22-3.07-3.66-3.07S251.55,816.29,251.55,818.2Z"/><path d="M268.92,824.2v1.12h-1.54c-2.58,0-3.71-.72-3.71-3.55v-6.53h-2.42v-1.11h2.42v-4.27l1.32-.21v4.48h3.63l.21,1.11H265v6.53c0,2,.8,2.43,2.39,2.43Z"/><path d="M47.67,852.62a15.91,15.91,0,0,1,0-19.22h1.24a16.23,16.23,0,0,0,0,19.22Z"/><path d="M57.82,847c0,2.52-1.66,3.59-3.89,3.59a4,4,0,0,1-4-2.54l1.1-.63a3,3,0,0,0,2.87,2.06A2.29,2.29,0,0,0,56.49,847V836l-.75-.84c-.13-.15-.09-.34.14-.34h1.94Z"/><path d="M65.12,839.33c3.22,0,4.56,1,4.56,3.54v7.65H68.36v-1.16a10.39,10.39,0,0,1-4.31,1.26c-2,0-3.5-1-3.5-3v-1c0-2,1.43-3,3.92-3h3.89v-.63c0-1.76-.86-2.43-3.24-2.43H61.43v-1.11Zm3.24,8.92v-3.63H64.47c-1.72,0-2.6.67-2.6,2v.86a2,2,0,0,0,2.18,2A10.39,10.39,0,0,0,68.36,848.25Z"/><path d="M81.52,842v5.36c0,1.82-1.34,2.81-3.33,2.81a21,21,0,0,1-4.25-.67v4.81H72.62V840.5l-.75-.84c-.13-.15-.09-.33.14-.33h1.93v.77a15.33,15.33,0,0,1,4.25-.88C80.18,839.22,81.52,840.21,81.52,842Zm-1.32.42c0-1.53-.48-2.12-2.12-2.12a16.45,16.45,0,0,0-4.14.93v7.12a22.28,22.28,0,0,0,4.14.71c1.64,0,2.12-.59,2.12-2.12Z"/><path d="M88.2,839.33c3.22,0,4.56,1,4.56,3.54v7.65H91.44v-1.16a10.43,10.43,0,0,1-4.31,1.26c-2,0-3.5-1-3.5-3v-1c0-2,1.42-3,3.92-3h3.89v-.63c0-1.76-.86-2.43-3.24-2.43H84.51v-1.11Zm3.24,8.92v-3.63H87.55c-1.72,0-2.6.67-2.6,2v.86a2,2,0,0,0,2.18,2A10.43,10.43,0,0,0,91.44,848.25Z"/><path d="M104.6,842v8.49h-1.32v-8.07c0-1.53-.29-2.12-1.28-2.12s-2.27.34-5,1.14v9H95.7v-10l-.76-.84c-.12-.15-.08-.33.15-.33H97v1a18.24,18.24,0,0,1,5.08-1.09C103.6,839.22,104.6,840.21,104.6,842Z"/><path d="M112.37,850.52l5.82-15.67h1.3l-5.79,15.67Z"/><path d="M136.84,847l1.09.59a5.79,5.79,0,0,1-5.44,3.11c-3.55,0-5.44-1.6-5.44-4.73v-6.63c0-3.32,1.89-4.73,5.44-4.73a5.58,5.58,0,0,1,5.23,2.9l-1.09.59a4.57,4.57,0,0,0-4.14-2.37c-2.79,0-4.11,1.23-4.11,3.9v6.05c0,2.67,1.32,3.9,4.11,3.9A4.78,4.78,0,0,0,136.84,847Z"/><path d="M148.72,842v8.49H147.4v-8.07c0-1.53-.29-2.12-1.28-2.12a24.7,24.7,0,0,0-5,.93v9.26h-1.32V835.19l-.75-.84c-.13-.15-.09-.34.14-.34h1.93v6.09a22.82,22.82,0,0,1,5.09-.88C147.69,839.22,148.72,840.21,148.72,842Z"/><path d="M151.92,836.81v-1.75h1.74v1.75Zm.21,13.71V839.33h1.32v11.19Z"/><path d="M166,842v8.49h-1.32v-8.07c0-1.53-.29-2.12-1.28-2.12s-2.27.34-5,1.14v9h-1.32v-10l-.75-.84c-.13-.15-.09-.33.14-.33h1.93v1a18.29,18.29,0,0,1,5.09-1.09C165,839.22,166,840.21,166,842Z"/><path d="M173.27,839.33c3.22,0,4.56,1,4.56,3.54v7.65h-1.32v-1.16a10.39,10.39,0,0,1-4.31,1.26c-2,0-3.5-1-3.5-3v-1c0-2,1.42-3,3.92-3h3.89v-.63c0-1.76-.86-2.43-3.24-2.43h-3.69v-1.11Zm3.24,8.92v-3.63h-3.89c-1.72,0-2.6.67-2.6,2v.86a2,2,0,0,0,2.18,2A10.39,10.39,0,0,0,176.51,848.25Z"/><path d="M185.6,850.52l5.82-15.67h1.3l-5.8,15.67Z"/><path d="M203.93,836h-4.7l-.21-1.12h11V836h-4.8v14.55h-1.33Z"/><path d="M220.65,842v8.49h-1.32v-8.07c0-1.53-.3-2.12-1.29-2.12a24.65,24.65,0,0,0-5,.93v9.26h-1.32V835.19l-.76-.84c-.13-.15-.08-.34.15-.34h1.93v6.09a22.67,22.67,0,0,1,5.08-.88C219.62,839.22,220.65,840.21,220.65,842Z"/><path d="M227.75,839.33c3.21,0,4.55,1,4.55,3.54v7.65H231v-1.16a10.39,10.39,0,0,1-4.3,1.26c-2,0-3.51-1-3.51-3v-1c0-2,1.43-3,3.93-3H231v-.63c0-1.76-.86-2.43-3.23-2.43h-3.7v-1.11Zm3.23,8.92v-3.63H227.1c-1.73,0-2.61.67-2.61,2v.86a2,2,0,0,0,2.19,2A10.39,10.39,0,0,0,231,848.25Z"/><path d="M235.71,836.81v-1.75h1.74v1.75Zm.21,13.71V839.33h1.32v11.19Z"/><path d="M241.48,850.52V834h1.32v16.51Z"/><path d="M250.74,839.33c3.21,0,4.56,1,4.56,3.54v7.65H254v-1.16a10.34,10.34,0,0,1-4.3,1.26c-2,0-3.51-1-3.51-3v-1c0-2,1.43-3,3.93-3H254v-.63c0-1.76-.86-2.43-3.23-2.43h-3.69v-1.11Zm3.23,8.92v-3.63h-3.88c-1.72,0-2.6.67-2.6,2v.86a2,2,0,0,0,2.18,2A10.34,10.34,0,0,0,254,848.25Z"/><path d="M267.14,842v8.49h-1.32v-8.07c0-1.53-.3-2.12-1.28-2.12s-2.27.34-5,1.14v9h-1.32v-10l-.76-.84c-.12-.15-.08-.33.15-.33h1.93v1a18.17,18.17,0,0,1,5.08-1.09C266.13,839.22,267.14,840.21,267.14,842Z"/><path d="M277.45,834h1.32v16.51h-1.32v-.78a15.21,15.21,0,0,1-4.24.88c-2,0-3.34-1-3.34-2.81V842c0-1.82,1.35-2.81,3.34-2.81a20.8,20.8,0,0,1,4.24.67Zm0,14.57v-7.53a21.53,21.53,0,0,0-4.13-.72c-1.64,0-2.12.59-2.12,2.12v4.94c0,1.53.48,2.12,2.12,2.12A15.87,15.87,0,0,0,277.45,848.58Z"/><path d="M281.09,852.62a16.23,16.23,0,0,0,0-19.22h1.24a15.91,15.91,0,0,1,0,19.22Z"/></g><g class="cls-9"><path d="M19,964.61h7.24v1.06H18.79a.6.6,0,0,1-.44-.16l-.4-.36a.72.72,0,0,1-.22-.5V951.86l-.72-.8c-.12-.14-.08-.32.14-.32H26v1.06H19v5.46h6.62v1.06H19Z"/><path d="M36.51,957.58v8.09H35.25V958c0-1.46-.28-2-1.22-2A18.35,18.35,0,0,0,29.29,957v8.63H28v-9.55l-.72-.8c-.12-.14-.08-.32.14-.32h1.84v.94a17.11,17.11,0,0,1,4.84-1C35.55,954.9,36.51,955.84,36.51,957.58Z"/><path d="M45.41,964.61v1.06H44c-2.46,0-3.54-.68-3.54-3.38v-6.23h-2.3V955h2.3v-4.06l1.26-.2V955h3.46l.2,1.06H41.67v6.23c0,1.94.76,2.32,2.28,2.32Z"/><path d="M56.11,963.45a5,5,0,0,1-4.76,2.32c-3,0-4.74-1.48-4.74-3.9V958.8c0-2.42,1.74-3.9,4.74-3.9s4.74,1.48,4.74,3.9v2.08H47.87v.91c0,1.82,1.16,2.92,3.48,2.92a4.18,4.18,0,0,0,3.76-1.91Zm-8.24-4.57v.94h7v-.94c0-1.82-1.16-2.92-3.48-2.92S47.87,957.06,47.87,958.88Z"/><path d="M65.11,956.06H62.49c-2,0-2.72.84-2.72,2.72v6.89H58.51v-7c0-2.56,1.32-3.66,3.9-3.66h2.5Z"/><path d="M66.75,952.6v-1.66h1.66v1.66Zm.2,13.07V955h1.26v10.67Z"/><path d="M80.13,957.58v8.09H78.87V958c0-1.46-.28-2-1.22-2A18.35,18.35,0,0,0,72.91,957v8.63H71.65v-9.55l-.72-.8c-.12-.14-.08-.32.14-.32h1.84v.94a17.11,17.11,0,0,1,4.84-1C79.17,954.9,80.13,955.84,80.13,957.58Z"/><path d="M90,955h1.26v10.83c0,2.36-1.32,3.28-4.34,3.28H83.55l-.2-1.06h3.52c2.26,0,3.08-.64,3.08-2.32v-1.5a19.74,19.74,0,0,1-4,.64c-1.9,0-3.18-1-3.18-2.69v-4.6c0-1.74,1.28-2.68,3.18-2.68a14.53,14.53,0,0,1,4,.84Zm0,8.13v-6.29A15.45,15.45,0,0,0,86,956c-1.56,0-2,.56-2,2v3.81c0,1.46.46,2,2,2A21.88,21.88,0,0,0,90,963.13Z"/><path d="M100.27,964.61h7.24v1.06h-7.44a.6.6,0,0,1-.44-.16l-.4-.36a.72.72,0,0,1-.22-.5V951.86l-.72-.8c-.12-.14-.08-.32.14-.32h8.88v1.06h-7v5.46h6.62v1.06h-6.62Z"/><path d="M118,950.74h1.26v10.52c0,3-1.74,4.51-5,4.51s-5-1.52-5-4.51v-9.4l-.72-.8c-.12-.14-.08-.32.14-.32h1.84V961c0,2.55,1.2,3.73,3.72,3.73S118,963.53,118,961Z"/><path d="M138,950.74h2.12v14.93h-1.26V951.74l-4.58,10.76h-1.4l-4.58-10.76v13.93h-1.26V951.86l-.72-.8c-.12-.14-.08-.32.14-.32h2.7l4.42,10.62Z"/><path d="M147.11,955c3.06,0,4.34.94,4.34,3.38v7.29h-1.26v-1.1a9.88,9.88,0,0,1-4.1,1.2c-1.9,0-3.34-1-3.34-2.9v-1c0-1.9,1.36-2.9,3.74-2.9h3.7v-.6c0-1.68-.82-2.32-3.08-2.32h-3.52V955Zm3.08,8.5V960h-3.7c-1.64,0-2.48.64-2.48,1.92v.83a1.86,1.86,0,0,0,2.08,1.92A9.75,9.75,0,0,0,150.19,963.5Z"/><path d="M160.85,956.06h-2.62c-2,0-2.72.84-2.72,2.72v6.89h-1.26v-7c0-2.56,1.32-3.66,3.9-3.66h2.5Z"/><path d="M170.11,965.67h-1.64l-5.16-5.61v5.61h-1.26V951.06l-.72-.8c-.12-.14-.08-.32.14-.32h1.84v9.6L168,955h1.74l-5.06,4.76Z"/><path d="M180.21,963.45a5,5,0,0,1-4.76,2.32c-3,0-4.74-1.48-4.74-3.9V958.8c0-2.42,1.74-3.9,4.74-3.9s4.74,1.48,4.74,3.9v2.08H172v.91c0,1.82,1.16,2.92,3.48,2.92a4.18,4.18,0,0,0,3.76-1.91ZM172,958.88v.94h7v-.94c0-1.82-1.16-2.92-3.48-2.92S172,957.06,172,958.88Z"/><path d="M188.51,964.61v1.06h-1.46c-2.46,0-3.54-.68-3.54-3.38v-6.23h-2.3V955h2.3v-4.06l1.26-.2V955h3.46l.2,1.06h-3.66v6.23c0,1.94.76,2.32,2.28,2.32Z"/><path d="M198.37,965.67h-3.66v-1.06h3.66c1.86,0,2.78-.62,2.78-1.69s-.4-1.56-2.84-2.2c-2.64-.68-3.6-1.46-3.6-3.1s1.36-2.62,4.1-2.62h2.78l.2,1.06h-3c-1.92,0-2.84.62-2.84,1.56s.58,1.54,2.92,2.12c2.66.7,3.52,1.39,3.52,3.18S201,965.67,198.37,965.67Z"/><path d="M210.11,964.61v1.06h-1.46c-2.46,0-3.54-.68-3.54-3.38v-6.23h-2.3V955h2.3v-4.06l1.26-.2V955h3.46l.2,1.06h-3.66v6.23c0,1.94.76,2.32,2.28,2.32Z"/><path d="M215.67,955c3.06,0,4.34.94,4.34,3.38v7.29h-1.26v-1.1a9.88,9.88,0,0,1-4.1,1.2c-1.9,0-3.34-1-3.34-2.9v-1c0-1.9,1.36-2.9,3.74-2.9h3.7v-.6c0-1.68-.82-2.32-3.08-2.32h-3.52V955Zm3.08,8.5V960h-3.7c-1.64,0-2.48.64-2.48,1.92v.83a1.86,1.86,0,0,0,2.08,1.92A9.75,9.75,0,0,0,218.75,963.5Z"/><path d="M229.41,956.06h-2.62c-2,0-2.72.84-2.72,2.72v6.89h-1.26v-7c0-2.56,1.32-3.66,3.9-3.66h2.5Z"/><path d="M237.51,964.61v1.06h-1.46c-2.46,0-3.54-.68-3.54-3.38v-6.23h-2.3V955h2.3v-4.06l1.26-.2V955h3.46l.2,1.06h-3.66v6.23c0,1.94.76,2.32,2.28,2.32Z"/><path d="M239.75,952.6v-1.66h1.66v1.66Zm.2,13.07V955h1.26v10.67Z"/><path d="M253.13,957.58v8.09h-1.26V958c0-1.46-.28-2-1.22-2a18.35,18.35,0,0,0-4.74,1.08v8.63h-1.26v-9.55l-.72-.8c-.12-.14-.08-.32.14-.32h1.84v.94a17.11,17.11,0,0,1,4.84-1C252.17,954.9,253.13,955.84,253.13,957.58Z"/><path d="M263,955h1.26v10.83c0,2.36-1.32,3.28-4.34,3.28h-3.32l-.2-1.06h3.52c2.26,0,3.08-.64,3.08-2.32v-1.5a19.74,19.74,0,0,1-4,.64c-1.9,0-3.18-1-3.18-2.69v-4.6c0-1.74,1.28-2.68,3.18-2.68a14.53,14.53,0,0,1,4,.84Zm0,8.13v-6.29A15.45,15.45,0,0,0,259,956c-1.56,0-2,.56-2,2v3.81c0,1.46.46,2,2,2A21.88,21.88,0,0,0,263,963.13Z"/><path d="M277,951c-1.52,0-2.28.38-2.28,2.32V955h4v1.06h-4v9.61h-1.26v-9.61H271l-.2-1.06h2.68v-1.68c0-2.7,1.08-3.38,3.54-3.38h1.74V951Z"/><path d="M286.57,956.06H284c-2,0-2.72.84-2.72,2.72v6.89H280v-7c0-2.56,1.32-3.66,3.9-3.66h2.5Z"/><path d="M287.17,962V958.7c0-2.42,1.74-3.9,4.74-3.9s4.74,1.48,4.74,3.9V962c0,2.43-1.74,3.91-4.74,3.91S287.17,964.39,287.17,962Zm8.22-.08v-3.1c0-1.82-1.16-2.92-3.48-2.92s-3.48,1.1-3.48,2.92v3.1c0,1.83,1.16,2.93,3.48,2.93S295.39,963.71,295.39,961.88Z"/><path d="M312.27,957.58v8.09H311v-7.89c0-1.26-.38-1.82-1.22-1.82a13,13,0,0,0-3.48.8,3.46,3.46,0,0,1,.08.82v8.09h-1.26v-7.89c0-1.26-.38-1.82-1.22-1.82a11.69,11.69,0,0,0-3.4.9v8.81h-1.26v-9.55l-.72-.8c-.12-.14-.08-.32.14-.32h1.84v.76a11.85,11.85,0,0,1,3.5-.86,2.22,2.22,0,0,1,1.88.88,15,15,0,0,1,4-.88C311.29,954.9,312.27,955.84,312.27,957.58Z"/></g><g class="cls-9"><path d="M92,992.69H87.84v-1.06H92c2.3,0,3.4-1,3.4-2.79s-.46-2.52-3.2-3.34c-3.22-.94-4.32-1.68-4.32-4.24s1.48-3.52,4.86-3.52h3.12l.2,1.06H92.7c-2.46,0-3.6,1-3.6,2.46,0,1.6.72,2.28,3.34,3.06,3.46,1,4.18,1.74,4.18,4.52C96.62,991.41,95,992.69,92,992.69Z"/><path d="M107.3,984.58v5.1c0,1.75-1.28,2.69-3.18,2.69a19.74,19.74,0,0,1-4-.64v4.58H98.82V983.12l-.72-.8c-.12-.14-.08-.32.14-.32h1.84v.74a14.53,14.53,0,0,1,4-.84C106,981.9,107.3,982.84,107.3,984.58ZM106,985c0-1.46-.46-2-2-2a15.45,15.45,0,0,0-3.94.88v6.79a21.88,21.88,0,0,0,3.94.68c1.56,0,2-.56,2-2Z"/><path d="M113.66,982c3.06,0,4.34.94,4.34,3.38v7.29h-1.26v-1.1a9.88,9.88,0,0,1-4.1,1.2c-1.9,0-3.34-1-3.34-2.9v-1c0-1.9,1.36-2.9,3.74-2.9h3.7v-.6c0-1.68-.82-2.32-3.08-2.32h-3.52V982Zm3.08,8.5V987H113c-1.64,0-2.48.64-2.48,1.92v.83a1.86,1.86,0,0,0,2.08,1.92A9.75,9.75,0,0,0,116.74,990.5Z"/><path d="M121.24,979.6v-1.66h1.66v1.66Zm.2,13.07V982h1.26v10.67Z"/><path d="M134.62,984.58v8.09h-1.26V985c0-1.46-.28-2-1.22-2A18.35,18.35,0,0,0,127.4,984v8.63h-1.26v-9.55l-.72-.8c-.12-.14-.08-.32.14-.32h1.84v.94a17.11,17.11,0,0,1,4.84-1C133.66,981.9,134.62,982.84,134.62,984.58Z"/><path d="M146.58,982c3.06,0,4.34.94,4.34,3.38v7.29h-1.26v-1.1a9.88,9.88,0,0,1-4.1,1.2c-1.9,0-3.34-1-3.34-2.9v-1c0-1.9,1.36-2.9,3.74-2.9h3.7v-.6c0-1.68-.82-2.32-3.08-2.32h-3.52V982Zm3.08,8.5V987H146c-1.64,0-2.48.64-2.48,1.92v.83a1.86,1.86,0,0,0,2.08,1.92A9.75,9.75,0,0,0,149.66,990.5Z"/><path d="M162.2,984.58v8.09h-1.26V985c0-1.46-.28-2-1.22-2A18.35,18.35,0,0,0,155,984v8.63h-1.26v-9.55l-.72-.8c-.12-.14-.08-.32.14-.32H155v.94a17.11,17.11,0,0,1,4.84-1C161.24,981.9,162.2,982.84,162.2,984.58Z"/><path d="M172,976.94h1.26v15.73H172v-.74a14.53,14.53,0,0,1-4,.84c-1.9,0-3.18-.94-3.18-2.69v-5.5c0-1.74,1.28-2.68,3.18-2.68a19.74,19.74,0,0,1,4,.64Zm0,13.89v-7.19a21,21,0,0,0-3.94-.68c-1.56,0-2,.56-2,2v4.7c0,1.47.46,2,2,2A15.45,15.45,0,0,0,172,990.83Z"/><path d="M182.94,992.67h-1.26V978.86l-.72-.8c-.12-.14-.08-.32.14-.32h1.84Z"/><path d="M192.94,983.06h-2.62c-2,0-2.72.84-2.72,2.72v6.89h-1.26v-7c0-2.56,1.32-3.66,3.9-3.66h2.5Z"/><path d="M203,990.45a5,5,0,0,1-4.76,2.32c-3,0-4.74-1.48-4.74-3.9V985.8c0-2.42,1.74-3.9,4.74-3.9s4.74,1.48,4.74,3.9v2.08H194.8v.91c0,1.82,1.16,2.92,3.48,2.92A4.18,4.18,0,0,0,202,989.8Zm-8.24-4.57v.94h7v-.94c0-1.82-1.16-2.92-3.48-2.92S194.8,984.06,194.8,985.88Z"/><path d="M206,992.67V976.94h1.26v15.73Z"/><path d="M214.86,982c3.06,0,4.34.94,4.34,3.38v7.29h-1.26v-1.1a9.88,9.88,0,0,1-4.1,1.2c-1.9,0-3.34-1-3.34-2.9v-1c0-1.9,1.36-2.9,3.74-2.9h3.7v-.6c0-1.68-.82-2.32-3.08-2.32h-3.52V982Zm3.08,8.5V987h-3.7c-1.64,0-2.48.64-2.48,1.92v.83a1.86,1.86,0,0,0,2.08,1.92A9.75,9.75,0,0,0,217.94,990.5Z"/><path d="M230.48,984.58v8.09h-1.26V985c0-1.46-.28-2-1.22-2a18.35,18.35,0,0,0-4.74,1.08v8.63H222v-9.55l-.72-.8c-.12-.14-.08-.32.14-.32h1.84v.94a17.11,17.11,0,0,1,4.84-1C229.52,981.9,230.48,982.84,230.48,984.58Z"/><path d="M240.3,976.94h1.26v15.73H240.3v-.74a14.53,14.53,0,0,1-4,.84c-1.9,0-3.18-.94-3.18-2.69v-5.5c0-1.74,1.28-2.68,3.18-2.68a19.74,19.74,0,0,1,4,.64Zm0,13.89v-7.19a21,21,0,0,0-3.94-.68c-1.56,0-2,.56-2,2v4.7c0,1.47.46,2,2,2A15.45,15.45,0,0,0,240.3,990.83Z"/></g></svg>