<?xml version="1.0" encoding="UTF-8"?><svg id="a" xmlns="http://www.w3.org/2000/svg" viewBox="0 0 779 336"><defs><style>.b{fill:#124cc4;}.c{fill:#fff;}</style></defs><g><path class="b" d="M251.75,180.37c0-5.56-.44-10.68-1.82-14.78h22.69c-6.28-62.5-58.53-111.43-122.43-112.5-69.74-1.16-126.73,54.36-127.31,124.11-.58,69.63,55.69,126.25,125.18,126.25,62.34,0,114.03-45.57,123.59-105.22h-22.96c1.9-4.22,3.05-10.8,3.05-17.86Z"/><path class="c" d="M177.07,191.7c-4.87,10.94-15.8,18.3-28.28,18.3-17.08,0-30.97-13.89-30.97-30.97s13.89-30.97,30.97-30.97c12.91,0,24.38,8.1,28.91,19.84h40.35c-.17-1.08-.37-2.16-.59-3.22-3.24-15.55-11.81-29.7-24.13-39.83-12.51-10.28-28.32-15.95-44.53-15.95-38.68,0-70.14,31.47-70.14,70.14s31.47,70.14,70.14,70.14c16.63,0,32.75-5.92,45.4-16.68,12.33-10.48,20.69-24.95,23.59-40.79h-40.71Z"/></g><g><path class="c" d="M289.23,170.73c0-27.16,20.79-46.42,49.09-46.42,16.45,0,29.71,5.99,38.38,16.83l-16.07,14.54c-5.61-6.76-12.5-10.46-21.04-10.46-14.66,0-24.87,10.2-24.87,25.5s10.2,25.5,24.87,25.5c8.54,0,15.43-3.7,21.04-10.46l16.07,14.54c-8.67,10.84-21.93,16.83-38.38,16.83-28.31,0-49.09-19.25-49.09-46.42Z"/><path class="c" d="M381.42,170.73c0-26.78,21.04-46.42,49.6-46.42s49.6,19.64,49.6,46.42-21.04,46.42-49.6,46.42-49.6-19.64-49.6-46.42Zm73.71,0c0-15.43-10.58-25.5-24.1-25.5s-24.1,10.07-24.1,25.5,10.58,25.5,24.1,25.5,24.1-10.07,24.1-25.5Z"/><path class="c" d="M480.5,204.01l13.77-16.32c4.72,6.12,9.69,9.31,15.43,9.31,7.27,0,11.22-4.46,11.22-13.01v-38.38h-30.86v-19.51h55.85v56.36c0,23.21-11.99,34.68-34.43,34.68-13.01,0-24.1-4.59-30.99-13.13Z"/><path class="c" d="M620.9,198.02h-37.75l-7.01,17.34h-25.76l39.4-89.26h24.87l39.53,89.26h-26.27l-7.01-17.34Zm-7.4-18.62l-11.48-28.56-11.48,28.56h22.95Z"/><path class="c" d="M741.91,215.36l-.25-47.31-22.95,38.51h-11.22l-22.83-37.23v46.03h-23.34V126.1h20.79l31.37,51.52,30.6-51.52h20.79l.25,89.26h-23.21Z"/></g></svg>