<svg width="252" height="40" viewBox="0 0 252 40" fill="none" xmlns="http://www.w3.org/2000/svg">
<g clip-path="url(#clip0)">
<path fill-rule="evenodd" clip-rule="evenodd" d="M30.136 10.3537C34.5578 9.26531 36.9388 9.46939 37.6871 10.966C38.3673 12.4626 37.0068 14.5034 33.2653 17.2925C33.1973 17.3605 33.0612 17.4966 32.9252 17.5646L33.4694 18.7211C33.8095 19.3333 33.8095 20.0136 33.4694 20.6259L28.0272 32.3265C27.6871 32.9388 27.0748 33.2789 26.3945 33.2789H11.1565C10.4762 33.2789 9.86394 32.9388 9.5238 32.3265L8.16326 29.3333C6.32652 29.8095 4.62584 30.0816 3.2653 30.0816C1.70067 30.0816 0.544208 29.6735 0.136045 28.7891C-0.680281 27.0204 1.56462 24.5714 4.89795 22.1905L4.14965 20.5578C3.80951 19.9456 3.80951 19.2653 4.14965 18.6531L9.59183 6.95238C9.93196 6.34014 10.5442 6 11.2245 6H26.4626C27.1428 6 27.7551 6.34014 28.0952 6.95238L29.7279 10.4218C29.7959 10.4218 29.8639 10.4048 29.932 10.3878C30 10.3707 30.068 10.3537 30.136 10.3537ZM12.6531 27.8367C14.3537 29.1293 16.5306 29.8776 18.8435 29.8776C24.4218 29.8776 28.9116 25.5238 29.1837 20.0136C26.8027 21.5102 24.0136 23.0068 21.0884 24.3673C18.6394 25.4558 15.6462 26.7483 12.6531 27.8367ZM30.3794 16.9236C31.0331 16.4823 31.6423 16.0711 32.1769 15.6599C34.6939 13.8231 35.9184 12.3946 35.9184 11.7823C35.7143 11.6463 35.3741 11.5782 34.7619 11.5782C33.8095 11.5782 32.3809 11.7823 30.5442 12.2585L31.6326 14.5714C30.6803 15.2517 29.6599 15.932 28.7075 16.5442C28.3673 15.3878 27.8231 14.2993 27.0748 13.3469C26.5986 12.7347 26.1224 12.2585 25.5782 11.7823C23.8095 10.2857 21.4286 9.33333 18.9116 9.33333C13.1973 9.33333 8.57142 13.9592 8.57142 19.6735V19.8095C8.57142 20.5578 8.70747 21.2381 8.84353 21.9184C9.11564 23.1429 9.59183 24.2313 10.2721 25.2517C8.84353 25.7279 7.68707 26.068 6.87074 26.2721L5.7823 23.9592C3.19727 25.8639 1.90475 27.3605 1.97278 27.9048C2.38094 28.3129 4.2857 28.2449 7.41496 27.4286C8.50339 27.1565 9.72788 26.8163 11.0884 26.3401C13.6735 25.4558 16.8027 24.2313 20.2721 22.5986C23.8095 20.966 26.7347 19.3333 29.0476 17.8367C29.505 17.5139 29.9517 17.2123 30.3794 16.9236ZM106.735 16.6803L107.007 27.7687H111.429V30.0136H107.891C105.782 30.0136 104.422 28.517 104.422 26.2041L104.15 16.6803H99.6598H95.9184V30.0816H93.4013V16.7483H91.4966V14.5714H93.4013V14.2993C93.4013 8.99319 97.2109 8.44897 98.8435 8.44897C99.3877 8.44897 99.7959 8.517 99.7959 8.517H100V10.8299L99.7279 10.7619C99.7279 10.7619 99.4558 10.6939 99.0476 10.6939C97.619 10.6939 95.9184 11.3061 95.9184 14.2313V14.5034H99.6598H102.177C103.265 14.5034 104.422 13.7551 104.422 12.6667V9.67346H107.007L106.735 14.5034H111.224V16.6803H106.735ZM46.3265 9.06122H48.9116V30.0136H46.3265V9.06122ZM120.34 14.5034C115.85 14.5034 112.993 17.8368 112.993 22.5987C112.993 27.2925 116.463 30.0136 121.088 30.0136C124.115 30.0136 126.172 28.3442 126.684 27.9281L126.684 27.928L126.685 27.9277C126.748 27.8764 126.788 27.8442 126.803 27.8368L126.939 27.7007L125.782 25.7279L125.578 25.932C125.578 25.932 123.809 27.7007 121.224 27.7007C118.571 27.7007 115.782 26.6803 115.646 22.8708H127.143C127.143 22.8708 127.211 21.9184 127.211 21.5782C127.211 18.1089 124.898 14.5034 120.34 14.5034ZM115.714 20.8299C116.258 18.2449 117.755 16.6803 120.272 16.6803C122.109 16.6803 124.354 17.7687 124.626 20.8299H115.714ZM212.109 14.5034C207.619 14.5034 204.762 17.8368 204.762 22.5987C204.762 27.2925 208.231 30.0136 212.857 30.0136C215.884 30.0136 217.941 28.3442 218.453 27.9281C218.517 27.8766 218.556 27.8443 218.571 27.8368L218.708 27.7007L217.551 25.7279L217.347 25.932C217.347 25.932 215.578 27.7007 212.993 27.7007C210.34 27.7007 207.551 26.6803 207.415 22.8708H218.912C218.912 22.8708 218.98 21.9184 218.98 21.5782C218.912 18.1089 216.599 14.5034 212.109 14.5034ZM207.483 20.8299C208.027 18.2449 209.524 16.6803 212.041 16.6803C213.878 16.6803 216.123 17.7687 216.395 20.8299H207.483ZM158.776 16.8844C159.456 15.932 160.952 14.5034 163.742 14.5034C167.755 14.5034 170.476 17.4966 170.476 22.3946C170.476 27.1565 167.619 30.0816 163.537 30.0816C160.952 30.0816 159.524 28.6531 158.844 27.7687V28.2449V36H156.327V14.5034H158.776V16.5442V16.8844ZM163.333 27.7687C166.054 27.7687 167.959 25.7279 167.959 22.3265C167.959 18.8572 166.122 16.8163 163.401 16.7483C161.156 16.7483 158.776 18.0408 158.776 22.3265C158.776 25.2517 160.34 27.7687 163.333 27.7687ZM201.361 25.864C201.361 25.864 199.728 27.8367 196.939 27.8367C193.81 27.8367 191.497 25.4558 191.497 22.3265C191.497 19.1293 193.741 16.8163 196.871 16.8163C199.32 16.8163 200.884 18.449 200.884 18.517L201.088 18.7211L202.381 16.8844L202.245 16.7483L202.24 16.7432L202.233 16.7353L202.232 16.7341C202.051 16.5403 200.282 14.6395 196.803 14.6395C192.381 14.6395 189.048 17.9728 189.048 22.3946C189.048 26.8844 192.313 30.1497 196.803 30.1497C200.421 30.1497 202.385 28.0507 202.572 27.8505L202.585 27.8367L202.721 27.7007L201.565 25.7959L201.361 25.864ZM80.9525 28.381C83.5375 28.381 85.4423 27.1565 85.4423 25.6599H85.5103V23.2109H81.9729C78.9116 23.2109 77.5511 24.0272 77.5511 25.4558V26.0681C77.5511 27.5647 78.8436 28.381 80.9525 28.381ZM81.8368 14.8436C85.6463 14.8436 88.0273 16.9524 88.0273 20.2857L88.0953 27.8368H90.3402V30.0817H88.6395C86.6667 30.0817 85.9184 29.0613 85.7144 27.7007C84.9661 29.3334 83.4014 30.3538 80.6123 30.3538C77.1429 30.3538 74.9661 28.6531 74.9661 25.864C74.9661 23.1429 77.0749 21.5783 82.0409 21.5783H85.5783V20.5579C85.5783 18.313 84.1497 17.0204 81.8368 17.0204C80.2042 17.0204 78.4355 17.9728 77.8912 20.5579H75.3742C75.7824 17.0204 78.2994 14.8436 81.8368 14.8436ZM183.401 25.6599C183.401 27.1565 181.497 28.381 178.912 28.381C176.803 28.381 175.51 27.5647 175.51 26.0681V25.4558C175.51 24.0272 176.871 23.2109 179.932 23.2109H183.469V25.6599H183.401ZM185.918 20.2857C185.918 16.9524 183.537 14.8436 179.728 14.8436C176.191 14.8436 173.673 17.0204 173.265 20.5579H175.782C176.327 17.9728 178.095 17.0204 179.728 17.0204C182.041 17.0204 183.469 18.313 183.469 20.5579V21.5783H179.932C174.966 21.5783 172.857 23.1429 172.857 25.864C172.857 28.6531 175.034 30.3538 178.503 30.3538C181.293 30.3538 182.857 29.3334 183.605 27.7007C183.81 29.0613 184.558 30.0817 186.531 30.0817H188.231V27.8368H185.986L185.918 20.2857ZM62.1089 9.06122H58.9116L51.0204 16.9524C50.2721 17.7007 50.2041 18.8571 50.8844 19.6735L59.1157 30.0136H62.3129L52.9252 18.2449L62.1089 9.06122ZM148.231 21.1701C146.122 20.4898 144.49 19.9456 144.49 18.6531C144.49 17.6327 145.714 16.6122 147.823 16.6122C149.32 16.6122 150.544 17.5646 151.088 18.1769L151.429 18.517L153.129 16.6122L152.925 16.4082C152.109 15.6599 150.408 14.2993 147.823 14.2993C144.286 14.2993 141.429 16.2041 141.429 18.6531C141.429 21.3003 144.409 22.3221 146.787 23.1375L146.803 23.1429C148.912 23.8231 150.748 24.5034 150.748 25.932C150.748 27.1565 149.456 27.9728 147.619 27.9728C145.631 27.9728 144.126 27.1262 143.448 26.7443C143.406 26.7212 143.368 26.6997 143.333 26.6803L142.993 26.4762L141.292 28.3809L141.565 28.585C142.313 29.1292 144.354 30.3537 147.551 30.3537C151.224 30.3537 153.741 28.517 153.741 25.932C153.809 23.0289 150.727 22.0019 148.287 21.1886L148.231 21.1701ZM132.653 17.3605C133.605 15.4558 135.646 14.5034 137.551 14.5034C137.959 14.5034 138.98 14.5034 139.388 14.4354V16.6122C138.98 16.6803 137.823 16.6803 137.551 16.6803C135.714 16.6803 133.742 18.2449 133.061 20.5578C132.789 21.4422 132.653 22.3945 132.653 23.415V30.0136H130.204V14.5034H132.653V17.3605ZM72.1089 14.5034C70.2041 14.5034 68.1633 15.4558 67.2109 17.3605V14.5034H64.762V30.0136H67.2109V23.415C67.2109 22.3945 67.347 21.4422 67.6191 20.5578C68.2994 18.2449 70.2722 16.6803 72.1089 16.6803C72.381 16.6803 73.5375 16.6803 73.9456 16.6122V14.4354C73.5375 14.5034 72.449 14.5034 72.1089 14.5034Z" fill="white"/>
<path d="M225.6 8H228.286C228.686 8 229.028 8.05731 229.314 8.17192C230 8.45846 230.4 8.97422 230.4 9.77652C230.4 10.808 229.771 11.6103 228.971 11.9542C229.6 12.1834 230 12.7565 230 13.6161C230 14.8195 229.314 15.7364 228.343 16.1376C228 16.3095 227.543 16.3668 227.143 16.3668H224L225.6 8ZM227.029 15.6791C227.314 15.6791 227.657 15.6218 227.886 15.5072C228.571 15.2207 229.028 14.533 229.028 13.6734C229.028 12.8711 228.514 12.4126 227.657 12.4126H225.543L224.914 15.7364H227.029V15.6791ZM227.714 11.6676C228.628 11.6676 229.486 10.9227 229.486 9.89113C229.486 9.20345 229.086 8.8023 228.286 8.8023H226.286L225.714 11.725H227.714V11.6676Z" fill="white" fill-opacity="0.7"/>
<path d="M234.742 10.2349C236.228 10.2349 236.914 11.1518 236.914 12.4125C236.914 12.871 236.742 13.4441 236.742 13.4441H232.171C232.114 13.616 232.114 13.7879 232.114 13.9598C232.114 14.9913 232.743 15.8509 234.057 15.8509C235.142 15.8509 236 15.106 236 15.106L236.285 15.7936C236.285 15.7936 235.314 16.5959 234.057 16.5959C232.4 16.5959 231.314 15.5644 231.314 14.0744C231.314 12.0687 232.743 10.2349 234.742 10.2349ZM236.114 12.7564C236.114 12.7564 236.171 12.5271 236.171 12.3552C236.171 11.381 235.6 10.9225 234.8 10.9225C233.828 10.9225 232.8 11.5529 232.4 12.7564H236.114Z" fill="white" fill-opacity="0.7"/>
<path d="M237.829 14.0745L238.4 11.0945H237.6L237.714 10.4068H238.514L238.857 8.68762H239.657L239.314 10.4068H240.8L240.686 11.0945H239.2L238.629 14.0745C238.572 14.3037 238.572 14.4756 238.572 14.5902C238.572 15.5072 239.143 15.6791 239.6 15.6791C239.829 15.6791 239.943 15.6791 239.943 15.6791L239.772 16.4241C239.772 16.4241 239.657 16.4241 239.486 16.4241C238.686 16.4241 237.772 16.1375 237.772 14.7049C237.772 14.5329 237.772 14.361 237.829 14.0745Z" fill="white" fill-opacity="0.7"/>
<path d="M244.686 12.6992H245.086C245.143 12.3553 245.143 12.1834 245.143 12.0688C245.143 11.4957 244.857 10.98 243.943 10.98C242.971 10.98 242.114 11.553 242.114 11.553L241.829 10.8654C241.829 10.8654 242.743 10.235 244 10.235C245.2 10.235 246 10.7507 246 11.9542C246 12.1834 246 12.3553 245.943 12.5846L245.2 16.3668H244.4L244.514 15.6792C244.571 15.3926 244.629 15.1634 244.629 15.1634C244.629 15.1634 243.886 16.5388 242.457 16.5388C241.486 16.5388 240.686 15.9657 240.686 15.0488C240.629 13.1003 243.029 12.6992 244.686 12.6992ZM242.629 15.8511C243.771 15.8511 244.686 14.6476 244.914 13.5588L244.971 13.3296H244.629C243.657 13.3296 241.486 13.4442 241.486 14.8769C241.486 15.3926 241.829 15.8511 242.629 15.8511Z" fill="white" fill-opacity="0.7"/>
</g>
<defs>
<clipPath id="clip0">
<rect width="252" height="40" fill="white"/>
</clipPath>
</defs>
</svg>
