<svg width="30" height="30" viewBox="0 0 30 30" fill="none" xmlns="http://www.w3.org/2000/svg">
<path d="M21.7969 1.81641H8.20312C7.16895 1.81641 6.32812 2.65723 6.32812 3.69141V26.1914C6.32812 27.2256 7.16895 28.0664 8.20312 28.0664H21.7969C22.8311 28.0664 23.6719 27.2256 23.6719 26.1914V3.69141C23.6719 2.65723 22.8311 1.81641 21.7969 1.81641ZM21.5625 25.957H8.4375V3.92578H21.5625V25.957ZM13.8281 22.9688C13.8281 23.2796 13.9516 23.5776 14.1714 23.7974C14.3911 24.0172 14.6892 24.1406 15 24.1406C15.3108 24.1406 15.6089 24.0172 15.8286 23.7974C16.0484 23.5776 16.1719 23.2796 16.1719 22.9688C16.1719 22.6579 16.0484 22.3599 15.8286 22.1401C15.6089 21.9203 15.3108 21.7969 15 21.7969C14.6892 21.7969 14.3911 21.9203 14.1714 22.1401C13.9516 22.3599 13.8281 22.6579 13.8281 22.9688Z" fill="#5429D8"/>
</svg>
