<svg width="120" height="120" viewBox="0 0 120 120" fill="none" xmlns="http://www.w3.org/2000/svg">
<path d="M57.207 68.0178C56.5505 68.0179 55.9003 67.8885 55.2937 67.6371C54.6872 67.3858 54.1361 67.0173 53.672 66.5528L35.9912 48.8602C35.5268 48.3961 35.1584 47.8449 34.9071 47.2384C34.6557 46.6318 34.5264 45.9816 34.5264 45.3251C34.5264 44.6685 34.6557 44.0183 34.9071 43.4118C35.1584 42.8052 35.5268 42.2541 35.9912 41.7899L67.8027 9.97597C68.3508 9.42654 69.0196 9.01271 69.7558 8.76747L80.3613 5.22987C81.2424 4.93607 82.1878 4.89352 83.0916 5.10698C83.9955 5.32043 84.822 5.78146 85.4785 6.43837L96.0888 17.0463C96.7454 17.703 97.206 18.5296 97.419 19.4334C97.632 20.3372 97.5891 21.2825 97.295 22.1633L93.755 32.7737C93.5113 33.5101 93.0982 34.1791 92.5489 34.7268L60.7423 66.553C60.2782 67.0175 59.7271 67.3859 59.1205 67.6373C58.5139 67.8886 57.8637 68.0179 57.207 68.0178Z" fill="#C1C0FF"/>
<path d="M35.9912 48.8605L35.9909 48.8599L28.9111 55.938C28.4467 56.4021 28.0783 56.9532 27.827 57.5598C27.5757 58.1664 27.4463 58.8165 27.4463 59.4731C27.4463 60.1297 27.5757 60.7799 27.827 61.3864C28.0783 61.993 28.4467 62.5441 28.9111 63.0083L39.5215 73.6138C39.9857 74.0781 40.5368 74.4465 41.1433 74.6979C41.7499 74.9492 42.4001 75.0786 43.0566 75.0786C43.7132 75.0786 44.3634 74.9492 44.9699 74.6979C45.5765 74.4465 46.1276 74.0781 46.5918 73.6138L53.6621 66.5434L35.9912 48.8605Z" fill="#A2A1FF"/>
<path d="M40 90.0269H20C18.6739 90.0269 17.4021 89.5001 16.4645 88.5624C15.5268 87.6247 15 86.3529 15 85.0269C15 83.7008 15.5268 82.429 16.4645 81.4913C17.4021 80.5536 18.6739 80.0269 20 80.0269H40C41.3261 80.0269 42.5979 80.5536 43.5355 81.4913C44.4732 82.429 45 83.7008 45 85.0269C45 86.3529 44.4732 87.6247 43.5355 88.5624C42.5979 89.5001 41.3261 90.0269 40 90.0269Z" fill="#6563FF"/>
<path d="M100 115.027H20C18.6739 115.027 17.4021 114.5 16.4645 113.562C15.5268 112.625 15 111.353 15 110.027C15 108.701 15.5268 107.429 16.4645 106.491C17.4021 105.554 18.6739 105.027 20 105.027H100C101.326 105.027 102.598 105.554 103.536 106.491C104.473 107.429 105 108.701 105 110.027C105 111.353 104.473 112.625 103.536 113.562C102.598 114.5 101.326 115.027 100 115.027Z" fill="#A2A1FF"/>
<path d="M74.0787 105.027C74.6714 103.426 74.9831 101.734 75 100.027C75 96.0486 73.4196 92.2333 70.6066 89.4203C67.7936 86.6072 63.9782 85.0269 60 85.0269C56.0218 85.0269 52.2064 86.6072 49.3934 89.4203C46.5804 92.2333 45 96.0486 45 100.027C45.017 101.734 45.3288 103.426 45.9216 105.027H74.0787Z" fill="#C1C0FF"/>
<path d="M89.3631 37.9149L82.2898 44.9928C87.2615 50.48 90.0105 57.6228 90.0003 65.0273C89.9692 70.7206 88.3315 76.2895 85.2756 81.0933C82.2197 85.897 77.8697 89.7405 72.7262 92.1816C74.2025 94.5329 74.9903 97.2509 75.0003 100.027C74.9869 100.711 74.9205 101.392 74.8017 102.066C82.2014 99.0867 88.5482 93.9747 93.0351 87.3796C97.5221 80.7844 99.9466 73.0039 100 65.0273C100.015 54.9691 96.2134 45.2798 89.3631 37.9149ZM47.1033 92.4965C45.2005 91.7254 43.3689 90.7892 41.6294 89.6987C41.109 89.8999 40.5581 90.011 40.0003 90.0273H26.6321C31.6762 95.6657 38.0785 99.9205 45.2304 102.387C45.0844 101.609 45.0075 100.819 45.0004 100.027C45.0151 97.3741 45.7413 94.7735 47.1033 92.4965Z" fill="#A2A1FF"/>
</svg>
