<svg width="30" height="30" viewBox="0 0 30 30" fill="none" xmlns="http://www.w3.org/2000/svg">
<path d="M26.2125 9.08743C26.3284 8.97179 26.4203 8.83443 26.483 8.68321C26.5458 8.53199 26.5781 8.36989 26.5781 8.20618C26.5781 8.04247 26.5458 7.88037 26.483 7.72915C26.4203 7.57793 26.3284 7.44057 26.2125 7.32493L22.675 3.78743C22.5594 3.67155 22.422 3.57962 22.2708 3.51689C22.1196 3.45416 21.9575 3.42188 21.7937 3.42188C21.63 3.42188 21.4679 3.45416 21.3167 3.51689C21.1655 3.57962 21.0281 3.67155 20.9125 3.78743L15.3 9.39993L10.4375 4.53743C9.4625 3.56243 7.875 3.56243 6.9 4.53743L4.525 6.91243C3.55 7.88743 3.55 9.47493 4.525 10.4499L9.3875 15.3124L3.75 20.9499V26.2499H9.05L14.7 20.5999L19.5625 25.4624C20.75 26.6499 22.35 26.2124 23.1 25.4624L25.475 23.0874C26.45 22.1124 26.45 20.5249 25.475 19.5499L20.6125 14.6874L26.2125 9.08743ZM6.3 8.67493L8.6625 6.29993L10.25 7.88743L8.775 9.37493L10.5375 11.1374L12.025 9.64993L13.525 11.1499L11.15 13.5249L6.3 8.67493ZM20.3375 17.9749L18.85 19.4624L20.6125 21.2249L22.1 19.7374L23.6875 21.3249L21.3125 23.6999L16.45 18.8374L18.825 16.4624L20.3375 17.9749ZM8.0125 23.7499H6.25V21.9874L18.2625 9.97493L19.8875 11.5999L20.025 11.7374L8.0125 23.7499ZM20.025 8.19993L21.7875 6.43743L23.55 8.19993L21.7875 9.96243L20.025 8.19993Z" fill="#5429D8"/>
</svg>
