<svg width="120" height="120" viewBox="0 0 120 120" fill="none" xmlns="http://www.w3.org/2000/svg">
<path d="M67.5 45C63.3579 45 60 41.6421 60 37.5C60 33.3579 63.3579 30 67.5 30C71.6421 30 75 33.3579 75 37.5C74.9955 41.6403 71.6403 44.9955 67.5 45Z" fill="#C1C0FF"/>
<path d="M95 10H25C16.7258 10.0241 10.0242 16.7257 10 25V69.3L29.4 49.9C35.3374 44.25 44.6627 44.25 50.6 49.9L64.957 64.335L69.3946 59.8975C75.2618 54.0644 84.7383 54.0644 90.6055 59.8975L110 79.292V25C109.976 16.7257 103.274 10.0241 95 10ZM67.5 45C63.3579 45 60 41.6421 60 37.5C60 33.3579 63.3579 30 67.5 30C71.6422 30 75 33.3579 75 37.5C74.9955 41.6403 71.6403 44.9955 67.5 45Z" fill="#A2A1FF"/>
<path d="M50.6 49.8997C44.6627 44.2497 35.3374 44.2497 29.4 49.8997L10 69.2997V94.9997C10.0242 103.274 16.7258 109.976 25 110H95C99.0756 109.998 102.975 108.337 105.8 105.4L50.6 49.8997Z" fill="#6563FF"/>
<path d="M110 79.2918L90.6053 59.8972C84.738 54.0642 75.2616 54.0642 69.3944 59.8972L64.9568 64.3348L105.778 105.378C108.489 102.604 110.004 98.8781 110 94.9998V79.2918Z" fill="#C1C0FF"/>
</svg>
