<svg width="30" height="30" viewBox="0 0 30 30" fill="none" xmlns="http://www.w3.org/2000/svg">
<path d="M26.1834 7.57511L15.35 2.57511C15.2403 2.52434 15.1209 2.49805 15 2.49805C14.8792 2.49805 14.7597 2.52434 14.65 2.57511L3.81671 7.57511C3.67206 7.64205 3.54964 7.74908 3.46397 7.88349C3.37831 8.0179 3.33298 8.17405 3.33338 8.33344V22.5001C3.33298 22.6595 3.37831 22.8157 3.46397 22.9501C3.54964 23.0845 3.67206 23.1915 3.81671 23.2584L14.65 28.2584C14.7597 28.3092 14.8792 28.3355 15 28.3355C15.1209 28.3355 15.2403 28.3092 15.35 28.2584L26.1834 23.2584C26.328 23.1915 26.4504 23.0845 26.5361 22.9501C26.6218 22.8157 26.6671 22.6595 26.6667 22.5001V8.33344C26.6671 8.17405 26.6218 8.0179 26.5361 7.88349C26.4504 7.74908 26.328 7.64205 26.1834 7.57511ZM15 12.4168L6.15838 8.33344L15 4.25011L23.8417 8.33344L15 12.4168ZM25 21.9668L15.8334 26.2001V13.8668L25 9.63344V21.9668Z" fill="#5429D8"/>
</svg>
