<svg width="120" height="120" viewBox="0 0 120 120" fill="none" xmlns="http://www.w3.org/2000/svg">
<path d="M30 82.5C26.5389 82.5 23.1554 81.4737 20.2776 79.5507C17.3997 77.6278 15.1567 74.8947 13.8321 71.697C12.5076 68.4993 12.1611 64.9806 12.8363 61.5859C13.5115 58.1913 15.1783 55.0731 17.6257 52.6256C20.0731 50.1782 23.1913 48.5115 26.586 47.8363C29.9806 47.161 33.4993 47.5076 36.697 48.8321C39.8947 50.1566 42.6278 52.3997 44.5508 55.2775C46.4737 58.1554 47.5 61.5388 47.5 65C47.4944 69.6396 45.6489 74.0875 42.3682 77.3682C39.0875 80.6488 34.6396 82.4944 30 82.5Z" fill="#C1C0FF"/>
<path d="M43.2013 76.359C41.5812 78.2825 39.5602 79.8288 37.2799 80.8895C34.9996 81.9503 32.515 82.4999 30 82.4999C27.4851 82.4999 25.0005 81.9503 22.7202 80.8895C20.4398 79.8288 18.4189 78.2825 16.7987 76.359C13.1987 78.591 10.2264 81.7031 8.16213 85.4018C6.09786 89.1006 5.00963 93.2642 5.00003 97.5C5.00003 98.8261 5.52681 100.098 6.4645 101.036C7.40218 101.973 8.67395 102.5 10 102.5H50C51.3261 102.5 52.5979 101.973 53.5356 101.036C54.4732 100.098 55 98.8261 55 97.5C54.9904 93.2642 53.9022 89.1006 51.8379 85.4018C49.7737 81.7031 46.8014 78.591 43.2013 76.359ZM90 82.5C86.5389 82.5 83.1554 81.4737 80.2775 79.5507C77.3997 77.6278 75.1567 74.8947 73.8321 71.697C72.5076 68.4993 72.161 64.9806 72.8363 61.5859C73.5115 58.1913 75.1782 55.0731 77.6257 52.6256C80.0731 50.1782 83.1913 48.5115 86.586 47.8363C89.9806 47.161 93.4993 47.5076 96.697 48.8321C99.8947 50.1566 102.628 52.3997 104.551 55.2775C106.474 58.1554 107.5 61.5388 107.5 65C107.494 69.6396 105.649 74.0875 102.368 77.3682C99.0875 80.6489 94.6396 82.4944 90 82.5Z" fill="#A2A1FF"/>
<path d="M103.201 76.3586C101.581 78.2822 99.5602 79.8285 97.2799 80.8892C94.9995 81.95 92.515 82.4996 90 82.4996C87.485 82.4996 85.0005 81.95 82.7201 80.8892C80.4398 79.8285 78.4189 78.2822 76.7987 76.3586C73.1987 78.5906 70.2264 81.7027 68.1621 85.4015C66.0978 89.1003 65.0096 93.2639 65 97.4997C65 98.8258 65.5268 100.098 66.4645 101.035C67.4021 101.973 68.6739 102.5 70 102.5H110C111.326 102.5 112.598 101.973 113.536 101.035C114.473 100.098 115 98.8258 115 97.4997C114.99 93.2639 113.902 89.1003 111.838 85.4015C109.774 81.7027 106.801 78.5906 103.201 76.3586Z" fill="#8382FF"/>
<path d="M86.0349 28.9648L76.0349 18.9648C75.0945 18.0412 73.8274 17.5264 72.5093 17.5324C71.1912 17.5384 69.9288 18.0646 68.9968 18.9967C68.0648 19.9287 67.5385 21.1911 67.5325 22.5092C67.5266 23.8272 68.0414 25.0943 68.9649 26.0348L70.4299 27.4998H49.5702L51.0352 26.0348C51.963 25.0952 52.4814 23.8267 52.4773 22.5062C52.4731 21.1857 51.9466 19.9205 51.0129 18.9868C50.0792 18.0531 48.8139 17.5267 47.4935 17.5226C46.173 17.5185 44.9045 18.0369 43.9649 18.9648L33.9649 28.9648C33.5005 29.4289 33.1321 29.98 32.8808 30.5866C32.6294 31.1932 32.5001 31.8434 32.5001 32.4999C32.5001 33.1565 32.6294 33.8067 32.8808 34.4133C33.1321 35.0198 33.5005 35.5709 33.9649 36.0351L43.9649 46.0351C44.9045 46.9629 46.173 47.4813 47.4935 47.4771C48.814 47.4729 50.0792 46.9465 51.0129 46.0128C51.9466 45.079 52.473 43.8138 52.4771 42.4933C52.4812 41.1728 51.9628 39.9044 51.0349 38.9648L49.5699 37.4998H70.4293L68.9643 38.9648C68.0268 39.9024 67.5001 41.1741 67.5002 42.5C67.5002 43.8259 68.027 45.0975 68.9646 46.0351C69.9022 46.9726 71.1739 47.4993 72.4998 47.4992C73.8258 47.4992 75.0974 46.9724 76.0349 46.0348L86.0349 36.0348C86.4993 35.5706 86.8676 35.0196 87.119 34.413C87.3703 33.8065 87.4996 33.1563 87.4996 32.4998C87.4996 31.8432 87.3703 31.1931 87.119 30.5866C86.8676 29.98 86.4993 29.4289 86.0349 28.9648Z" fill="#6563FF"/>
</svg>
