<svg width="120" height="120" viewBox="0 0 120 120" fill="none" xmlns="http://www.w3.org/2000/svg">
<path d="M30 115H10C9.34334 115 8.69309 114.871 8.08638 114.62C7.47968 114.369 6.92841 114 6.46408 113.536C5.99976 113.072 5.63147 112.52 5.38025 111.914C5.12904 111.307 4.99983 110.657 5 110V70C4.99983 69.3433 5.12904 68.6931 5.38025 68.0864C5.63147 67.4797 5.99976 66.9284 6.46408 66.4641C6.92841 65.9998 7.47968 65.6315 8.08638 65.3803C8.69309 65.129 9.34334 64.9998 10 65H30C30.6567 64.9998 31.3069 65.129 31.9136 65.3803C32.5203 65.6315 33.0716 65.9998 33.5359 66.4641C34.0002 66.9284 34.3685 67.4797 34.6197 68.0864C34.871 68.6931 35.0002 69.3433 35 70V110C35.0002 110.657 34.871 111.307 34.6197 111.914C34.3685 112.52 34.0002 113.072 33.5359 113.536C33.0716 114 32.5203 114.369 31.9136 114.62C31.3069 114.871 30.6567 115 30 115V115Z" fill="#C1C0FF"/>
<path d="M70 115H50C49.3433 115 48.6931 114.871 48.0864 114.62C47.4797 114.369 46.9284 114 46.4641 113.536C45.9998 113.072 45.6315 112.52 45.3803 111.914C45.129 111.307 44.9998 110.657 45 110V10C44.9998 9.34334 45.129 8.69309 45.3803 8.08638C45.6315 7.47968 45.9998 6.92841 46.4641 6.46409C46.9284 5.99976 47.4797 5.63147 48.0864 5.38025C48.6931 5.12904 49.3433 4.99983 50 5H70C70.6567 4.99983 71.3069 5.12904 71.9136 5.38025C72.5203 5.63147 73.0716 5.99976 73.5359 6.46409C74.0002 6.92841 74.3685 7.47968 74.6197 8.08638C74.871 8.69309 75.0002 9.34334 75 10V110C75.0002 110.657 74.871 111.307 74.6197 111.914C74.3685 112.52 74.0002 113.072 73.5359 113.536C73.0716 114 72.5203 114.369 71.9136 114.62C71.3069 114.871 70.6567 115 70 115V115Z" fill="#6563FF"/>
<path d="M110 115H90C89.3433 115 88.6931 114.871 88.0864 114.62C87.4797 114.369 86.9284 114 86.4641 113.536C85.9998 113.072 85.6315 112.52 85.3803 111.914C85.129 111.307 84.9998 110.657 85 110V50C84.9998 49.3433 85.129 48.6931 85.3803 48.0864C85.6315 47.4797 85.9998 46.9284 86.4641 46.4641C86.9284 45.9998 87.4797 45.6315 88.0864 45.3803C88.6931 45.129 89.3433 44.9998 90 45H110C110.657 44.9998 111.307 45.129 111.914 45.3803C112.52 45.6315 113.072 45.9998 113.536 46.4641C114 46.9284 114.369 47.4797 114.62 48.0864C114.871 48.6931 115 49.3433 115 50V110C115 110.657 114.871 111.307 114.62 111.914C114.369 112.52 114 113.072 113.536 113.536C113.072 114 112.52 114.369 111.914 114.62C111.307 114.871 110.657 115 110 115Z" fill="#A2A1FF"/>
</svg>
