<svg width="30" height="30" viewBox="0 0 30 30" fill="none" xmlns="http://www.w3.org/2000/svg">
<path d="M25.125 0C25.7652 0 26.3991 0.140106 26.9906 0.412319C27.582 0.684532 28.1195 1.08352 28.5721 1.5865C29.0248 2.08949 29.3839 2.68662 29.6289 3.3438C29.8739 4.00098 30 4.70534 30 5.41667V24.5833C30 25.2947 29.8739 25.999 29.6289 26.6562C29.3839 27.3134 29.0248 27.9105 28.5721 28.4135C28.1195 28.9165 27.582 29.3155 26.9906 29.5877C26.3991 29.8599 25.7652 30 25.125 30H4.875C3.58207 30 2.34209 29.4293 1.42785 28.4135C0.513614 27.3977 0 26.0199 0 24.5833V5.41667C0 3.98008 0.513614 2.60233 1.42785 1.5865C2.34209 0.570683 3.58207 0 4.875 0H25.125ZM22.872 5.83333H7.122C6.82363 5.83333 6.53748 5.96503 6.3265 6.19945C6.11553 6.43387 5.997 6.75181 5.997 7.08333C5.997 7.41485 6.11553 7.7328 6.3265 7.96722C6.53748 8.20164 6.82363 8.33333 7.122 8.33333H22.872C23.1704 8.33333 23.4565 8.20164 23.6675 7.96722C23.8785 7.7328 23.997 7.41485 23.997 7.08333C23.997 6.75181 23.8785 6.43387 23.6675 6.19945C23.4565 5.96503 23.1704 5.83333 22.872 5.83333Z" fill="#5429D8"/>
</svg>
