<svg width="30" height="30" viewBox="0 0 30 30" fill="none" xmlns="http://www.w3.org/2000/svg">
<path d="M0 0L2.69865 26.9207L14.998 30L27.2482 26.9207L30 0H0ZM24.3287 6.38582L24.1325 8.08774L24.063 8.79086H9.6947L10.03 12.1875H23.7318L23.5968 13.0637L22.73 21.7969L22.6605 22.381L15.0143 24.2416V24.2524H14.9652L14.953 24.256V24.2524H14.9489L7.23729 22.3774L6.77116 17.1635H10.4961L10.7619 19.8029L14.9489 20.8017H14.9652L19.1359 19.8065L19.602 15.53H14.953V15.5264H6.57489L5.64263 6.38582L5.57312 5.50962H24.3942L24.3287 6.38582V6.38582Z" fill="#5429D8"/>
</svg>
