<svg width="120" height="120" viewBox="0 0 120 120" fill="none" xmlns="http://www.w3.org/2000/svg">
<path d="M25 40C22.0333 40 19.1332 39.1203 16.6665 37.472C14.1997 35.8238 12.2771 33.4811 11.1418 30.7403C10.0065 27.9994 9.70945 24.9834 10.2882 22.0737C10.867 19.1639 12.2956 16.4912 14.3934 14.3934C16.4912 12.2956 19.1639 10.867 22.0737 10.2882C24.9834 9.70945 27.9994 10.0065 30.7403 11.1418C33.4811 12.2771 35.8238 14.1997 37.472 16.6665C39.1203 19.1332 40 22.0333 40 25C39.9957 28.9769 38.4139 32.7897 35.6018 35.6018C32.7897 38.4139 28.9769 39.9957 25 40ZM25 20C24.0111 20 23.0444 20.2933 22.2222 20.8427C21.3999 21.3921 20.759 22.173 20.3806 23.0866C20.0022 24.0002 19.9032 25.0056 20.0961 25.9755C20.289 26.9454 20.7652 27.8363 21.4645 28.5355C22.1637 29.2348 23.0547 29.711 24.0246 29.9039C24.9945 30.0969 25.9998 29.9978 26.9134 29.6194C27.8271 29.241 28.6079 28.6001 29.1574 27.7779C29.7068 26.9556 30 25.9889 30 25C29.9987 23.6743 29.4715 22.4033 28.5341 21.4659C27.5967 20.5285 26.3257 20.0013 25 20ZM95 40C92.0333 40 89.1332 39.1203 86.6665 37.472C84.1997 35.8238 82.2771 33.4811 81.1418 30.7403C80.0065 27.9994 79.7094 24.9834 80.2882 22.0737C80.867 19.1639 82.2956 16.4912 84.3934 14.3934C86.4912 12.2956 89.1639 10.867 92.0737 10.2882C94.9834 9.70945 97.9994 10.0065 100.74 11.1418C103.481 12.2771 105.824 14.1997 107.472 16.6665C109.12 19.1332 110 22.0333 110 25C109.996 28.9769 108.414 32.7897 105.602 35.6018C102.79 38.4139 98.9769 39.9957 95 40ZM95 20C94.0111 20 93.0444 20.2933 92.2222 20.8427C91.3999 21.3921 90.759 22.173 90.3806 23.0866C90.0022 24.0002 89.9032 25.0056 90.0961 25.9755C90.289 26.9454 90.7652 27.8363 91.4645 28.5355C92.1637 29.2348 93.0546 29.711 94.0246 29.9039C94.9945 30.0969 95.9998 29.9978 96.9134 29.6194C97.8271 29.241 98.608 28.6001 99.1574 27.7779C99.7068 26.9556 100 25.9889 100 25C99.9987 23.6743 99.4715 22.4033 98.5341 21.4659C97.5967 20.5285 96.3257 20.0013 95 20ZM25 110C22.0333 110 19.1332 109.12 16.6665 107.472C14.1997 105.824 12.2771 103.481 11.1418 100.74C10.0065 97.9994 9.70945 94.9834 10.2882 92.0737C10.867 89.1639 12.2956 86.4912 14.3934 84.3934C16.4912 82.2956 19.1639 80.867 22.0737 80.2882C24.9834 79.7094 27.9994 80.0065 30.7403 81.1418C33.4811 82.2771 35.8238 84.1997 37.472 86.6665C39.1203 89.1332 40 92.0333 40 95C39.9957 98.9769 38.4139 102.79 35.6018 105.602C32.7897 108.414 28.9769 109.996 25 110ZM25 90C24.0111 90 23.0444 90.2933 22.2222 90.8427C21.3999 91.3921 20.759 92.173 20.3806 93.0866C20.0022 94.0002 19.9032 95.0056 20.0961 95.9755C20.289 96.9454 20.7652 97.8363 21.4645 98.5355C22.1637 99.2348 23.0547 99.711 24.0246 99.9039C24.9945 100.097 25.9998 99.9978 26.9134 99.6194C27.8271 99.241 28.6079 98.6001 29.1574 97.7779C29.7068 96.9556 30 95.9889 30 95C29.9987 93.6743 29.4715 92.4033 28.5341 91.4659C27.5967 90.5285 26.3257 90.0013 25 90ZM95 110C92.0333 110 89.1332 109.12 86.6665 107.472C84.1997 105.824 82.2771 103.481 81.1418 100.74C80.0065 97.9994 79.7094 94.9834 80.2882 92.0737C80.867 89.1639 82.2956 86.4912 84.3934 84.3934C86.4912 82.2956 89.1639 80.867 92.0737 80.2882C94.9834 79.7094 97.9994 80.0065 100.74 81.1418C103.481 82.2771 105.824 84.1997 107.472 86.6665C109.12 89.1332 110 92.0333 110 95C109.996 98.9769 108.414 102.79 105.602 105.602C102.79 108.414 98.9769 109.996 95 110ZM95 90C94.0111 90 93.0444 90.2933 92.2222 90.8427C91.3999 91.3921 90.759 92.173 90.3806 93.0866C90.0022 94.0002 89.9032 95.0056 90.0961 95.9755C90.289 96.9454 90.7652 97.8363 91.4645 98.5355C92.1637 99.2348 93.0546 99.711 94.0246 99.9039C94.9945 100.097 95.9998 99.9978 96.9134 99.6194C97.8271 99.241 98.608 98.6001 99.1574 97.7779C99.7068 96.9556 100 95.9889 100 95C99.9987 93.6743 99.4715 92.4033 98.5341 91.4659C97.5967 90.5285 96.3257 90.0013 95 90Z" fill="#6563FF"/>
<path d="M80.9216 100C79.6929 96.7799 79.6928 93.2201 80.9214 90H39.0787C40.3071 93.2201 40.3071 96.7799 39.0787 100H80.9216ZM95 40C93.2927 39.983 91.6012 39.6712 90 39.0784V80.9214C93.2201 79.6929 96.7799 79.6929 100 80.9214V39.0787C98.3988 39.6714 96.7073 39.9831 95 40ZM39.0787 20C39.6714 21.6012 39.9831 23.2927 40 25C39.9831 26.7073 39.6714 28.3988 39.0787 30H80.9216C80.3288 28.3988 80.017 26.7073 80 25C80.0169 23.2927 80.3286 21.6012 80.9214 20H39.0787ZM25 80C26.7073 80.0169 28.3988 80.3286 30 80.9214V39.0787C28.3988 39.6714 26.7073 39.9831 25 40C23.2927 39.983 21.6012 39.6712 20 39.0784V80.9214C21.6012 80.3286 23.2927 80.0169 25 80Z" fill="#A2A1FF"/>
</svg>
