<svg width="127" height="130" viewBox="0 0 127 130" fill="none" xmlns="http://www.w3.org/2000/svg">
<path d="M82.4473 58.225H69.7978V45.325C69.7978 43.6144 69.1314 41.9738 67.9453 40.7642C66.7591 39.5546 65.1504 38.875 63.473 38.875C61.7955 38.875 60.1868 39.5546 59.0007 40.7642C57.8145 41.9738 57.1482 43.6144 57.1482 45.325V58.225H44.4986C42.8212 58.225 41.2124 58.9045 40.0263 60.1142C38.8402 61.3238 38.1738 62.9643 38.1738 64.675C38.1738 66.3856 38.8402 68.0262 40.0263 69.2358C41.2124 70.4454 42.8212 71.125 44.4986 71.125H57.1482V84.025C57.1482 85.7356 57.8145 87.3762 59.0007 88.5858C60.1868 89.7954 61.7955 90.475 63.473 90.475C65.1504 90.475 66.7591 89.7954 67.9453 88.5858C69.1314 87.3762 69.7978 85.7356 69.7978 84.025V71.125H82.4473C84.1248 71.125 85.7335 70.4454 86.9196 69.2358C88.1057 68.0262 88.7721 66.3856 88.7721 64.675C88.7721 62.9643 88.1057 61.3238 86.9196 60.1142C85.7335 58.9045 84.1248 58.225 82.4473 58.225Z" fill="#6563FF"/>
<path d="M63.473 0.175049C51.5028 0.176053 39.7786 3.64087 29.6626 10.1669C19.5466 16.693 11.4541 26.0123 6.32528 37.0422C1.19651 48.0721 -0.757974 60.3598 0.688923 72.4774C2.13582 84.5951 6.9247 96.0453 14.4991 105.498L2.07828 118.165C1.19374 119.067 0.591328 120.216 0.34724 121.467C0.103152 122.718 0.228345 124.015 0.706988 125.194C1.18563 126.372 1.99623 127.379 3.03626 128.088C4.07629 128.797 5.29905 129.175 6.5499 129.175H63.473C80.2473 129.175 96.3347 122.38 108.196 110.283C120.057 98.1873 126.721 81.7815 126.721 64.6751C126.721 47.5686 120.057 31.1628 108.196 19.0667C96.3347 6.97056 80.2473 0.175049 63.473 0.175049ZM82.4473 71.125H69.7977V84.0251C69.7977 85.7357 69.1314 87.3763 67.9453 88.5859C66.7591 89.7955 65.1504 90.475 63.473 90.475C61.7955 90.475 60.1868 89.7955 59.0007 88.5859C57.8145 87.3763 57.1482 85.7357 57.1482 84.0251V71.125H44.4986C42.8212 71.125 41.2124 70.4455 40.0263 69.2359C38.8402 68.0263 38.1738 66.3857 38.1738 64.6751C38.1738 62.9644 38.8402 61.3238 40.0263 60.1142C41.2124 58.9046 42.8212 58.2251 44.4986 58.2251H57.1482V45.325C57.1482 43.6144 57.8145 41.9738 59.0007 40.7642C60.1868 39.5546 61.7955 38.8751 63.473 38.8751C65.1504 38.8751 66.7591 39.5546 67.9453 40.7642C69.1314 41.9738 69.7977 43.6144 69.7977 45.325V58.2251H82.4473C84.1247 58.2251 85.7335 58.9046 86.9196 60.1142C88.1057 61.3238 88.7721 62.9644 88.7721 64.6751C88.7721 66.3857 88.1057 68.0263 86.9196 69.2359C85.7335 70.4455 84.1247 71.125 82.4473 71.125Z" fill="#A2A1FF"/>
</svg>
